  0
SECTION
  2
HEADER
  9
$ACADVER
  1
AC1009
  9
$FILLMODE
 70
 0
  9
$SPLFRAME
 70
 1
  9
$EXTMIN
 10
0
 20
0
 30
0.0
  9
$EXTMAX
 10
1058.33
 20
1058.33
 30
0.0
  0
ENDSEC
  0
SECTION
  2
TABLES
  0
TABLE
  2
LAYER
 70
1
  0
LAYER
  2
0
 70
     0
 62
     7
  6
CONTINUOUS
  0
ENDTAB
  0
ENDSEC
  0
SECTION
  2
ENTITIES
  0
LINE
  8
0
 62
     0
 10
474.296
 20
134.666
 30
0.0
 11
474.532
 21
134.656
 31
0.0
  0
LINE
  8
0
 62
     0
 10
474.532
 20
134.656
 30
0.0
 11
474.765
 21
134.63
 31
0.0
  0
LINE
  8
0
 62
     0
 10
474.765
 20
134.63
 30
0.0
 11
474.998
 21
134.583
 31
0.0
  0
LINE
  8
0
 62
     0
 10
474.998
 20
134.583
 30
0.0
 11
475.223
 21
134.52
 31
0.0
  0
LINE
  8
0
 62
     0
 10
475.223
 20
134.52
 30
0.0
 11
475.442
 21
134.437
 31
0.0
  0
LINE
  8
0
 62
     0
 10
475.442
 20
134.437
 30
0.0
 11
475.657
 21
134.34
 31
0.0
  0
LINE
  8
0
 62
     0
 10
475.657
 20
134.34
 30
0.0
 11
475.865
 21
134.224
 31
0.0
  0
LINE
  8
0
 62
     0
 10
475.865
 20
134.224
 30
0.0
 11
476.059
 21
134.094
 31
0.0
  0
LINE
  8
0
 62
     0
 10
476.059
 20
134.094
 30
0.0
 11
476.243
 21
133.948
 31
0.0
  0
LINE
  8
0
 62
     0
 10
476.243
 20
133.948
 30
0.0
 11
476.419
 21
133.788
 31
0.0
  0
LINE
  8
0
 62
     0
 10
476.419
 20
133.788
 30
0.0
 11
476.578
 21
133.615
 31
0.0
  0
LINE
  8
0
 62
     0
 10
476.578
 20
133.615
 30
0.0
 11
476.723
 21
133.43
 31
0.0
  0
LINE
  8
0
 62
     0
 10
476.723
 20
133.43
 30
0.0
 11
476.853
 21
133.234
 31
0.0
  0
LINE
  8
0
 62
     0
 10
476.853
 20
133.234
 30
0.0
 11
476.97
 21
133.028
 31
0.0
  0
LINE
  8
0
 62
     0
 10
476.97
 20
133.028
 30
0.0
 11
477.068
 21
132.814
 31
0.0
  0
LINE
  8
0
 62
     0
 10
477.068
 20
132.814
 30
0.0
 11
477.15
 21
132.593
 31
0.0
  0
LINE
  8
0
 62
     0
 10
477.15
 20
132.593
 30
0.0
 11
477.213
 21
132.366
 31
0.0
  0
LINE
  8
0
 62
     0
 10
477.213
 20
132.366
 30
0.0
 11
477.259
 21
132.136
 31
0.0
  0
LINE
  8
0
 62
     0
 10
477.259
 20
132.136
 30
0.0
 11
477.287
 21
131.902
 31
0.0
  0
LINE
  8
0
 62
     0
 10
477.287
 20
131.902
 30
0.0
 11
477.294
 21
131.666
 31
0.0
  0
LINE
  8
0
 62
     0
 10
477.294
 20
131.666
 30
0.0
 11
477.294
 21
3.36517
 31
0.0
  0
LINE
  8
0
 62
     0
 10
477.294
 20
3.36517
 30
0.0
 11
477.287
 21
3.12952
 31
0.0
  0
LINE
  8
0
 62
     0
 10
477.287
 20
3.12952
 30
0.0
 11
477.259
 21
2.89526
 31
0.0
  0
LINE
  8
0
 62
     0
 10
477.259
 20
2.89526
 30
0.0
 11
477.213
 21
2.66513
 31
0.0
  0
LINE
  8
0
 62
     0
 10
477.213
 20
2.66513
 30
0.0
 11
477.15
 21
2.43775
 31
0.0
  0
LINE
  8
0
 62
     0
 10
477.15
 20
2.43775
 30
0.0
 11
477.068
 21
2.21726
 31
0.0
  0
LINE
  8
0
 62
     0
 10
477.068
 20
2.21726
 30
0.0
 11
476.97
 21
2.00367
 31
0.0
  0
LINE
  8
0
 62
     0
 10
476.97
 20
2.00367
 30
0.0
 11
476.853
 21
1.79696
 31
0.0
  0
LINE
  8
0
 62
     0
 10
476.853
 20
1.79696
 30
0.0
 11
476.723
 21
1.60128
 31
0.0
  0
LINE
  8
0
 62
     0
 10
476.723
 20
1.60128
 30
0.0
 11
476.578
 21
1.41662
 31
0.0
  0
LINE
  8
0
 62
     0
 10
476.578
 20
1.41662
 30
0.0
 11
476.419
 21
1.24299
 31
0.0
  0
LINE
  8
0
 62
     0
 10
476.419
 20
1.24299
 30
0.0
 11
476.243
 21
1.08314
 31
0.0
  0
LINE
  8
0
 62
     0
 10
476.243
 20
1.08314
 30
0.0
 11
476.059
 21
0.937066
 31
0.0
  0
LINE
  8
0
 62
     0
 10
476.059
 20
0.937066
 30
0.0
 11
475.865
 21
0.80753
 31
0.0
  0
LINE
  8
0
 62
     0
 10
475.865
 20
0.80753
 30
0.0
 11
475.657
 21
0.691776
 31
0.0
  0
LINE
  8
0
 62
     0
 10
475.657
 20
0.691776
 30
0.0
 11
475.442
 21
0.593933
 31
0.0
  0
LINE
  8
0
 62
     0
 10
475.442
 20
0.593933
 30
0.0
 11
475.223
 21
0.511253
 31
0.0
  0
LINE
  8
0
 62
     0
 10
475.223
 20
0.511253
 30
0.0
 11
474.998
 21
0.447862
 31
0.0
  0
LINE
  8
0
 62
     0
 10
474.998
 20
0.447862
 30
0.0
 11
474.765
 21
0.40101
 31
0.0
  0
LINE
  8
0
 62
     0
 10
474.765
 20
0.40101
 30
0.0
 11
474.532
 21
0.374826
 31
0.0
  0
LINE
  8
0
 62
     0
 10
474.532
 20
0.374826
 30
0.0
 11
474.296
 21
0.365181
 31
0.0
  0
LINE
  8
0
 62
     0
 10
474.296
 20
0.365181
 30
0.0
 11
3.09507
 21
0.365181
 31
0.0
  0
LINE
  8
0
 62
     0
 10
3.09507
 20
0.365181
 30
0.0
 11
2.85943
 21
0.374826
 31
0.0
  0
LINE
  8
0
 62
     0
 10
2.85943
 20
0.374826
 30
0.0
 11
2.62516
 21
0.40101
 31
0.0
  0
LINE
  8
0
 62
     0
 10
2.62516
 20
0.40101
 30
0.0
 11
2.39503
 21
0.447862
 31
0.0
  0
LINE
  8
0
 62
     0
 10
2.39503
 20
0.447862
 30
0.0
 11
2.16765
 21
0.511253
 31
0.0
  0
LINE
  8
0
 62
     0
 10
2.16765
 20
0.511253
 30
0.0
 11
1.94717
 21
0.593933
 31
0.0
  0
LINE
  8
0
 62
     0
 10
1.94717
 20
0.593933
 30
0.0
 11
1.73357
 21
0.691776
 31
0.0
  0
LINE
  8
0
 62
     0
 10
1.73357
 20
0.691776
 30
0.0
 11
1.52687
 21
0.80753
 31
0.0
  0
LINE
  8
0
 62
     0
 10
1.52687
 20
0.80753
 30
0.0
 11
1.33119
 21
0.937066
 31
0.0
  0
LINE
  8
0
 62
     0
 10
1.33119
 20
0.937066
 30
0.0
 11
1.14653
 21
1.08314
 31
0.0
  0
LINE
  8
0
 62
     0
 10
1.14653
 20
1.08314
 30
0.0
 11
0.972894
 21
1.24299
 31
0.0
  0
LINE
  8
0
 62
     0
 10
0.972894
 20
1.24299
 30
0.0
 11
0.813043
 21
1.41662
 31
0.0
  0
LINE
  8
0
 62
     0
 10
0.813043
 20
1.41662
 30
0.0
 11
0.666972
 21
1.60128
 31
0.0
  0
LINE
  8
0
 62
     0
 10
0.666972
 20
1.60128
 30
0.0
 11
0.537436
 21
1.79696
 31
0.0
  0
LINE
  8
0
 62
     0
 10
0.537436
 20
1.79696
 30
0.0
 11
0.421679
 21
2.00367
 31
0.0
  0
LINE
  8
0
 62
     0
 10
0.421679
 20
2.00367
 30
0.0
 11
0.323839
 21
2.21726
 31
0.0
  0
LINE
  8
0
 62
     0
 10
0.323839
 20
2.21726
 30
0.0
 11
0.241157
 21
2.43775
 31
0.0
  0
LINE
  8
0
 62
     0
 10
0.241157
 20
2.43775
 30
0.0
 11
0.177767
 21
2.66513
 31
0.0
  0
LINE
  8
0
 62
     0
 10
0.177767
 20
2.66513
 30
0.0
 11
0.130914
 21
2.89526
 31
0.0
  0
LINE
  8
0
 62
     0
 10
0.130914
 20
2.89526
 30
0.0
 11
0.104731
 21
3.12952
 31
0.0
  0
LINE
  8
0
 62
     0
 10
0.104731
 20
3.12952
 30
0.0
 11
0.0950846
 21
3.36517
 31
0.0
  0
LINE
  8
0
 62
     0
 10
0.0950846
 20
3.36517
 30
0.0
 11
0.0950846
 21
131.666
 31
0.0
  0
LINE
  8
0
 62
     0
 10
0.0950846
 20
131.666
 30
0.0
 11
0.104731
 21
131.902
 31
0.0
  0
LINE
  8
0
 62
     0
 10
0.104731
 20
131.902
 30
0.0
 11
0.130914
 21
132.136
 31
0.0
  0
LINE
  8
0
 62
     0
 10
0.130914
 20
132.136
 30
0.0
 11
0.177767
 21
132.366
 31
0.0
  0
LINE
  8
0
 62
     0
 10
0.177767
 20
132.366
 30
0.0
 11
0.241157
 21
132.593
 31
0.0
  0
LINE
  8
0
 62
     0
 10
0.241157
 20
132.593
 30
0.0
 11
0.323839
 21
132.814
 31
0.0
  0
LINE
  8
0
 62
     0
 10
0.323839
 20
132.814
 30
0.0
 11
0.421679
 21
133.028
 31
0.0
  0
LINE
  8
0
 62
     0
 10
0.421679
 20
133.028
 30
0.0
 11
0.537436
 21
133.234
 31
0.0
  0
LINE
  8
0
 62
     0
 10
0.537436
 20
133.234
 30
0.0
 11
0.666972
 21
133.43
 31
0.0
  0
LINE
  8
0
 62
     0
 10
0.666972
 20
133.43
 30
0.0
 11
0.813043
 21
133.615
 31
0.0
  0
LINE
  8
0
 62
     0
 10
0.813043
 20
133.615
 30
0.0
 11
0.972894
 21
133.788
 31
0.0
  0
LINE
  8
0
 62
     0
 10
0.972894
 20
133.788
 30
0.0
 11
1.14653
 21
133.948
 31
0.0
  0
LINE
  8
0
 62
     0
 10
1.14653
 20
133.948
 30
0.0
 11
1.33119
 21
134.094
 31
0.0
  0
LINE
  8
0
 62
     0
 10
1.33119
 20
134.094
 30
0.0
 11
1.52687
 21
134.224
 31
0.0
  0
LINE
  8
0
 62
     0
 10
1.52687
 20
134.224
 30
0.0
 11
1.73357
 21
134.34
 31
0.0
  0
LINE
  8
0
 62
     0
 10
1.73357
 20
134.34
 30
0.0
 11
1.94717
 21
134.437
 31
0.0
  0
LINE
  8
0
 62
     0
 10
1.94717
 20
134.437
 30
0.0
 11
2.16765
 21
134.52
 31
0.0
  0
LINE
  8
0
 62
     0
 10
2.16765
 20
134.52
 30
0.0
 11
2.39503
 21
134.583
 31
0.0
  0
LINE
  8
0
 62
     0
 10
2.39503
 20
134.583
 30
0.0
 11
2.62516
 21
134.63
 31
0.0
  0
LINE
  8
0
 62
     0
 10
2.62516
 20
134.63
 30
0.0
 11
2.85943
 21
134.656
 31
0.0
  0
LINE
  8
0
 62
     0
 10
2.85943
 20
134.656
 30
0.0
 11
3.09507
 21
134.666
 31
0.0
  0
LINE
  8
0
 62
     0
 10
3.09507
 20
134.666
 30
0.0
 11
474.296
 21
134.666
 31
0.0
  0
LINE
  8
0
 62
     0
 10
217.407
 20
26.8911
 30
0.0
 11
217.407
 21
22.1905
 31
0.0
  0
LINE
  8
0
 62
     0
 10
217.407
 20
22.1905
 30
0.0
 11
161.108
 21
22.1905
 31
0.0
  0
LINE
  8
0
 62
     0
 10
161.108
 20
22.1905
 30
0.0
 11
161.108
 21
25.4207
 31
0.0
  0
LINE
  8
0
 62
     0
 10
161.108
 20
25.4207
 30
0.0
 11
154.357
 21
25.4207
 31
0.0
  0
LINE
  8
0
 62
     0
 10
154.357
 20
25.4207
 30
0.0
 11
154.357
 21
22.1905
 31
0.0
  0
LINE
  8
0
 62
     0
 10
154.357
 20
22.1905
 30
0.0
 11
153.533
 21
22.1905
 31
0.0
  0
LINE
  8
0
 62
     0
 10
153.533
 20
22.1905
 30
0.0
 11
153.533
 21
19.3904
 31
0.0
  0
LINE
  8
0
 62
     0
 10
153.533
 20
19.3904
 30
0.0
 11
154.357
 21
19.3904
 31
0.0
  0
LINE
  8
0
 62
     0
 10
154.357
 20
19.3904
 30
0.0
 11
154.357
 21
13.1203
 31
0.0
  0
LINE
  8
0
 62
     0
 10
154.357
 20
13.1203
 30
0.0
 11
156.082
 21
13.1203
 31
0.0
  0
LINE
  8
0
 62
     0
 10
156.082
 20
13.1203
 30
0.0
 11
156.082
 21
11.92
 31
0.0
  0
LINE
  8
0
 62
     0
 10
156.082
 20
11.92
 30
0.0
 11
159.383
 21
11.92
 31
0.0
  0
LINE
  8
0
 62
     0
 10
159.383
 20
11.92
 30
0.0
 11
159.383
 21
13.1203
 31
0.0
  0
LINE
  8
0
 62
     0
 10
159.383
 20
13.1203
 30
0.0
 11
161.108
 21
13.1203
 31
0.0
  0
LINE
  8
0
 62
     0
 10
161.108
 20
13.1203
 30
0.0
 11
161.108
 21
17.5907
 31
0.0
  0
LINE
  8
0
 62
     0
 10
161.108
 20
17.5907
 30
0.0
 11
217.407
 21
17.5907
 31
0.0
  0
LINE
  8
0
 62
     0
 10
217.407
 20
17.5907
 30
0.0
 11
217.407
 21
12.8902
 31
0.0
  0
LINE
  8
0
 62
     0
 10
217.407
 20
12.8902
 30
0.0
 11
231.407
 21
12.8902
 31
0.0
  0
LINE
  8
0
 62
     0
 10
231.407
 20
12.8902
 30
0.0
 11
231.407
 21
17.5907
 31
0.0
  0
LINE
  8
0
 62
     0
 10
231.407
 20
17.5907
 30
0.0
 11
287.707
 21
17.5907
 31
0.0
  0
LINE
  8
0
 62
     0
 10
287.707
 20
17.5907
 30
0.0
 11
287.707
 21
13.1203
 31
0.0
  0
LINE
  8
0
 62
     0
 10
287.707
 20
13.1203
 30
0.0
 11
289.432
 21
13.1203
 31
0.0
  0
LINE
  8
0
 62
     0
 10
289.432
 20
13.1203
 30
0.0
 11
289.432
 21
11.92
 31
0.0
  0
LINE
  8
0
 62
     0
 10
289.432
 20
11.92
 30
0.0
 11
292.733
 21
11.92
 31
0.0
  0
LINE
  8
0
 62
     0
 10
292.733
 20
11.92
 30
0.0
 11
292.733
 21
13.1203
 31
0.0
  0
LINE
  8
0
 62
     0
 10
292.733
 20
13.1203
 30
0.0
 11
294.458
 21
13.1203
 31
0.0
  0
LINE
  8
0
 62
     0
 10
294.458
 20
13.1203
 30
0.0
 11
294.458
 21
19.3904
 31
0.0
  0
LINE
  8
0
 62
     0
 10
294.458
 20
19.3904
 30
0.0
 11
295.282
 21
19.3904
 31
0.0
  0
LINE
  8
0
 62
     0
 10
295.282
 20
19.3904
 30
0.0
 11
295.282
 21
22.1905
 31
0.0
  0
LINE
  8
0
 62
     0
 10
295.282
 20
22.1905
 30
0.0
 11
294.458
 21
22.1905
 31
0.0
  0
LINE
  8
0
 62
     0
 10
294.458
 20
22.1905
 30
0.0
 11
294.458
 21
25.4207
 31
0.0
  0
LINE
  8
0
 62
     0
 10
294.458
 20
25.4207
 30
0.0
 11
287.707
 21
25.4207
 31
0.0
  0
LINE
  8
0
 62
     0
 10
287.707
 20
25.4207
 30
0.0
 11
287.707
 21
22.1905
 31
0.0
  0
LINE
  8
0
 62
     0
 10
287.707
 20
22.1905
 30
0.0
 11
231.407
 21
22.1905
 31
0.0
  0
LINE
  8
0
 62
     0
 10
231.407
 20
22.1905
 30
0.0
 11
231.407
 21
26.8911
 31
0.0
  0
LINE
  8
0
 62
     0
 10
231.407
 20
26.8911
 30
0.0
 11
217.407
 21
26.8911
 31
0.0
  0
LINE
  8
0
 62
     0
 10
12.6201
 20
26.8911
 30
0.0
 11
26.6209
 21
26.8911
 31
0.0
  0
LINE
  8
0
 62
     0
 10
26.6209
 20
26.8911
 30
0.0
 11
26.6209
 21
12.8902
 31
0.0
  0
LINE
  8
0
 62
     0
 10
26.6209
 20
12.8902
 30
0.0
 11
12.6201
 21
12.8902
 31
0.0
  0
LINE
  8
0
 62
     0
 10
12.6201
 20
12.8902
 30
0.0
 11
12.6201
 21
26.8911
 31
0.0
  0
LINE
  8
0
 62
     0
 10
112.632
 20
26.8911
 30
0.0
 11
126.632
 21
26.8911
 31
0.0
  0
LINE
  8
0
 62
     0
 10
126.632
 20
26.8911
 30
0.0
 11
126.632
 21
12.8902
 31
0.0
  0
LINE
  8
0
 62
     0
 10
126.632
 20
12.8902
 30
0.0
 11
112.632
 21
12.8902
 31
0.0
  0
LINE
  8
0
 62
     0
 10
112.632
 20
12.8902
 30
0.0
 11
112.632
 21
26.8911
 31
0.0
  0
LINE
  8
0
 62
     0
 10
131.682
 20
26.8911
 30
0.0
 11
145.682
 21
26.8911
 31
0.0
  0
LINE
  8
0
 62
     0
 10
145.682
 20
26.8911
 30
0.0
 11
145.682
 21
12.8902
 31
0.0
  0
LINE
  8
0
 62
     0
 10
145.682
 20
12.8902
 30
0.0
 11
131.682
 21
12.8902
 31
0.0
  0
LINE
  8
0
 62
     0
 10
131.682
 20
12.8902
 30
0.0
 11
131.682
 21
26.8911
 31
0.0
  0
LINE
  8
0
 62
     0
 10
303.132
 20
26.8911
 30
0.0
 11
317.132
 21
26.8911
 31
0.0
  0
LINE
  8
0
 62
     0
 10
317.132
 20
26.8911
 30
0.0
 11
317.132
 21
12.8902
 31
0.0
  0
LINE
  8
0
 62
     0
 10
317.132
 20
12.8902
 30
0.0
 11
303.132
 21
12.8902
 31
0.0
  0
LINE
  8
0
 62
     0
 10
303.132
 20
12.8902
 30
0.0
 11
303.132
 21
26.8911
 31
0.0
  0
LINE
  8
0
 62
     0
 10
322.182
 20
26.8911
 30
0.0
 11
336.182
 21
26.8911
 31
0.0
  0
LINE
  8
0
 62
     0
 10
336.182
 20
26.8911
 30
0.0
 11
336.182
 21
12.8902
 31
0.0
  0
LINE
  8
0
 62
     0
 10
336.182
 20
12.8902
 30
0.0
 11
322.182
 21
12.8902
 31
0.0
  0
LINE
  8
0
 62
     0
 10
322.182
 20
12.8902
 30
0.0
 11
322.182
 21
26.8911
 31
0.0
  0
LINE
  8
0
 62
     0
 10
412.669
 20
26.8911
 30
0.0
 11
426.671
 21
26.8911
 31
0.0
  0
LINE
  8
0
 62
     0
 10
426.671
 20
26.8911
 30
0.0
 11
426.671
 21
12.8902
 31
0.0
  0
LINE
  8
0
 62
     0
 10
426.671
 20
12.8902
 30
0.0
 11
412.669
 21
12.8902
 31
0.0
  0
LINE
  8
0
 62
     0
 10
412.669
 20
12.8902
 30
0.0
 11
412.669
 21
26.8911
 31
0.0
  0
LINE
  8
0
 62
     0
 10
431.719
 20
26.8911
 30
0.0
 11
445.721
 21
26.8911
 31
0.0
  0
LINE
  8
0
 62
     0
 10
445.721
 20
26.8911
 30
0.0
 11
445.721
 21
12.8902
 31
0.0
  0
LINE
  8
0
 62
     0
 10
445.721
 20
12.8902
 30
0.0
 11
431.719
 21
12.8902
 31
0.0
  0
LINE
  8
0
 62
     0
 10
431.719
 20
12.8902
 30
0.0
 11
431.719
 21
26.8911
 31
0.0
  0
LINE
  8
0
 62
     0
 10
450.769
 20
26.8911
 30
0.0
 11
464.771
 21
26.8911
 31
0.0
  0
LINE
  8
0
 62
     0
 10
464.771
 20
26.8911
 30
0.0
 11
464.771
 21
12.8902
 31
0.0
  0
LINE
  8
0
 62
     0
 10
464.771
 20
12.8902
 30
0.0
 11
450.769
 21
12.8902
 31
0.0
  0
LINE
  8
0
 62
     0
 10
450.769
 20
12.8902
 30
0.0
 11
450.769
 21
26.8911
 31
0.0
  0
LINE
  8
0
 62
     0
 10
12.6201
 20
45.9412
 30
0.0
 11
26.6209
 21
45.9412
 31
0.0
  0
LINE
  8
0
 62
     0
 10
26.6209
 20
45.9412
 30
0.0
 11
26.6209
 21
31.9402
 31
0.0
  0
LINE
  8
0
 62
     0
 10
26.6209
 20
31.9402
 30
0.0
 11
12.6201
 21
31.9402
 31
0.0
  0
LINE
  8
0
 62
     0
 10
12.6201
 20
31.9402
 30
0.0
 11
12.6201
 21
45.9412
 31
0.0
  0
LINE
  8
0
 62
     0
 10
98.3449
 20
45.9412
 30
0.0
 11
112.346
 21
45.9412
 31
0.0
  0
LINE
  8
0
 62
     0
 10
112.346
 20
45.9412
 30
0.0
 11
112.346
 21
31.9402
 31
0.0
  0
LINE
  8
0
 62
     0
 10
112.346
 20
31.9402
 30
0.0
 11
98.3449
 21
31.9402
 31
0.0
  0
LINE
  8
0
 62
     0
 10
98.3449
 20
31.9402
 30
0.0
 11
98.3449
 21
45.9412
 31
0.0
  0
LINE
  8
0
 62
     0
 10
131.682
 20
45.9412
 30
0.0
 11
145.682
 21
45.9412
 31
0.0
  0
LINE
  8
0
 62
     0
 10
145.682
 20
45.9412
 30
0.0
 11
145.682
 21
31.9402
 31
0.0
  0
LINE
  8
0
 62
     0
 10
145.682
 20
31.9402
 30
0.0
 11
131.682
 21
31.9402
 31
0.0
  0
LINE
  8
0
 62
     0
 10
131.682
 20
31.9402
 30
0.0
 11
131.682
 21
45.9412
 31
0.0
  0
LINE
  8
0
 62
     0
 10
150.732
 20
45.9412
 30
0.0
 11
164.732
 21
45.9412
 31
0.0
  0
LINE
  8
0
 62
     0
 10
164.732
 20
45.9412
 30
0.0
 11
164.732
 21
31.9402
 31
0.0
  0
LINE
  8
0
 62
     0
 10
164.732
 20
31.9402
 30
0.0
 11
150.732
 21
31.9402
 31
0.0
  0
LINE
  8
0
 62
     0
 10
150.732
 20
31.9402
 30
0.0
 11
150.732
 21
45.9412
 31
0.0
  0
LINE
  8
0
 62
     0
 10
169.782
 20
45.9412
 30
0.0
 11
183.782
 21
45.9412
 31
0.0
  0
LINE
  8
0
 62
     0
 10
183.782
 20
45.9412
 30
0.0
 11
183.782
 21
31.9402
 31
0.0
  0
LINE
  8
0
 62
     0
 10
183.782
 20
31.9402
 30
0.0
 11
169.782
 21
31.9402
 31
0.0
  0
LINE
  8
0
 62
     0
 10
169.782
 20
31.9402
 30
0.0
 11
169.782
 21
45.9412
 31
0.0
  0
LINE
  8
0
 62
     0
 10
188.832
 20
45.9412
 30
0.0
 11
202.832
 21
45.9412
 31
0.0
  0
LINE
  8
0
 62
     0
 10
202.832
 20
45.9412
 30
0.0
 11
202.832
 21
31.9402
 31
0.0
  0
LINE
  8
0
 62
     0
 10
202.832
 20
31.9402
 30
0.0
 11
188.832
 21
31.9402
 31
0.0
  0
LINE
  8
0
 62
     0
 10
188.832
 20
31.9402
 30
0.0
 11
188.832
 21
45.9412
 31
0.0
  0
LINE
  8
0
 62
     0
 10
207.882
 20
45.9412
 30
0.0
 11
221.882
 21
45.9412
 31
0.0
  0
LINE
  8
0
 62
     0
 10
221.882
 20
45.9412
 30
0.0
 11
221.882
 21
31.9402
 31
0.0
  0
LINE
  8
0
 62
     0
 10
221.882
 20
31.9402
 30
0.0
 11
207.882
 21
31.9402
 31
0.0
  0
LINE
  8
0
 62
     0
 10
207.882
 20
31.9402
 30
0.0
 11
207.882
 21
45.9412
 31
0.0
  0
LINE
  8
0
 62
     0
 10
226.932
 20
45.9412
 30
0.0
 11
240.932
 21
45.9412
 31
0.0
  0
LINE
  8
0
 62
     0
 10
240.932
 20
45.9412
 30
0.0
 11
240.932
 21
31.9402
 31
0.0
  0
LINE
  8
0
 62
     0
 10
240.932
 20
31.9402
 30
0.0
 11
226.932
 21
31.9402
 31
0.0
  0
LINE
  8
0
 62
     0
 10
226.932
 20
31.9402
 30
0.0
 11
226.932
 21
45.9412
 31
0.0
  0
LINE
  8
0
 62
     0
 10
245.982
 20
45.9412
 30
0.0
 11
259.982
 21
45.9412
 31
0.0
  0
LINE
  8
0
 62
     0
 10
259.982
 20
45.9412
 30
0.0
 11
259.982
 21
31.9402
 31
0.0
  0
LINE
  8
0
 62
     0
 10
259.982
 20
31.9402
 30
0.0
 11
245.982
 21
31.9402
 31
0.0
  0
LINE
  8
0
 62
     0
 10
245.982
 20
31.9402
 30
0.0
 11
245.982
 21
45.9412
 31
0.0
  0
LINE
  8
0
 62
     0
 10
265.032
 20
45.9412
 30
0.0
 11
279.032
 21
45.9412
 31
0.0
  0
LINE
  8
0
 62
     0
 10
279.032
 20
45.9412
 30
0.0
 11
279.032
 21
31.9402
 31
0.0
  0
LINE
  8
0
 62
     0
 10
279.032
 20
31.9402
 30
0.0
 11
265.032
 21
31.9402
 31
0.0
  0
LINE
  8
0
 62
     0
 10
265.032
 20
31.9402
 30
0.0
 11
265.032
 21
45.9412
 31
0.0
  0
LINE
  8
0
 62
     0
 10
284.082
 20
45.9412
 30
0.0
 11
298.082
 21
45.9412
 31
0.0
  0
LINE
  8
0
 62
     0
 10
298.082
 20
45.9412
 30
0.0
 11
298.082
 21
31.9402
 31
0.0
  0
LINE
  8
0
 62
     0
 10
298.082
 20
31.9402
 30
0.0
 11
284.082
 21
31.9402
 31
0.0
  0
LINE
  8
0
 62
     0
 10
284.082
 20
31.9402
 30
0.0
 11
284.082
 21
45.9412
 31
0.0
  0
LINE
  8
0
 62
     0
 10
303.132
 20
45.9412
 30
0.0
 11
317.132
 21
45.9412
 31
0.0
  0
LINE
  8
0
 62
     0
 10
317.132
 20
45.9412
 30
0.0
 11
317.132
 21
31.9402
 31
0.0
  0
LINE
  8
0
 62
     0
 10
317.132
 20
31.9402
 30
0.0
 11
303.132
 21
31.9402
 31
0.0
  0
LINE
  8
0
 62
     0
 10
303.132
 20
31.9402
 30
0.0
 11
303.132
 21
45.9412
 31
0.0
  0
LINE
  8
0
 62
     0
 10
326.945
 20
45.9412
 30
0.0
 11
340.946
 21
45.9412
 31
0.0
  0
LINE
  8
0
 62
     0
 10
340.946
 20
45.9412
 30
0.0
 11
340.946
 21
31.9402
 31
0.0
  0
LINE
  8
0
 62
     0
 10
340.946
 20
31.9402
 30
0.0
 11
326.945
 21
31.9402
 31
0.0
  0
LINE
  8
0
 62
     0
 10
326.945
 20
31.9402
 30
0.0
 11
326.945
 21
45.9412
 31
0.0
  0
LINE
  8
0
 62
     0
 10
350.757
 20
45.9412
 30
0.0
 11
364.758
 21
45.9412
 31
0.0
  0
LINE
  8
0
 62
     0
 10
364.758
 20
45.9412
 30
0.0
 11
364.758
 21
31.9402
 31
0.0
  0
LINE
  8
0
 62
     0
 10
364.758
 20
31.9402
 30
0.0
 11
350.757
 21
31.9402
 31
0.0
  0
LINE
  8
0
 62
     0
 10
350.757
 20
31.9402
 30
0.0
 11
350.757
 21
45.9412
 31
0.0
  0
LINE
  8
0
 62
     0
 10
412.669
 20
45.9412
 30
0.0
 11
426.671
 21
45.9412
 31
0.0
  0
LINE
  8
0
 62
     0
 10
426.671
 20
45.9412
 30
0.0
 11
426.671
 21
31.9402
 31
0.0
  0
LINE
  8
0
 62
     0
 10
426.671
 20
31.9402
 30
0.0
 11
412.669
 21
31.9402
 31
0.0
  0
LINE
  8
0
 62
     0
 10
412.669
 20
31.9402
 30
0.0
 11
412.669
 21
45.9412
 31
0.0
  0
LINE
  8
0
 62
     0
 10
431.719
 20
45.9412
 30
0.0
 11
445.721
 21
45.9412
 31
0.0
  0
LINE
  8
0
 62
     0
 10
445.721
 20
45.9412
 30
0.0
 11
445.721
 21
31.9402
 31
0.0
  0
LINE
  8
0
 62
     0
 10
445.721
 20
31.9402
 30
0.0
 11
431.719
 21
31.9402
 31
0.0
  0
LINE
  8
0
 62
     0
 10
431.719
 20
31.9402
 30
0.0
 11
431.719
 21
45.9412
 31
0.0
  0
LINE
  8
0
 62
     0
 10
450.769
 20
45.9412
 30
0.0
 11
464.771
 21
45.9412
 31
0.0
  0
LINE
  8
0
 62
     0
 10
464.771
 20
45.9412
 30
0.0
 11
464.771
 21
31.9402
 31
0.0
  0
LINE
  8
0
 62
     0
 10
464.771
 20
31.9402
 30
0.0
 11
450.769
 21
31.9402
 31
0.0
  0
LINE
  8
0
 62
     0
 10
450.769
 20
31.9402
 30
0.0
 11
450.769
 21
45.9412
 31
0.0
  0
LINE
  8
0
 62
     0
 10
12.6201
 20
64.9912
 30
0.0
 11
26.6209
 21
64.9912
 31
0.0
  0
LINE
  8
0
 62
     0
 10
26.6209
 20
64.9912
 30
0.0
 11
26.6209
 21
50.9901
 31
0.0
  0
LINE
  8
0
 62
     0
 10
26.6209
 20
50.9901
 30
0.0
 11
12.6201
 21
50.9901
 31
0.0
  0
LINE
  8
0
 62
     0
 10
12.6201
 20
50.9901
 30
0.0
 11
12.6201
 21
64.9912
 31
0.0
  0
LINE
  8
0
 62
     0
 10
84.0574
 20
64.9912
 30
0.0
 11
98.0571
 21
64.9912
 31
0.0
  0
LINE
  8
0
 62
     0
 10
98.0571
 20
64.9912
 30
0.0
 11
98.0571
 21
50.9901
 31
0.0
  0
LINE
  8
0
 62
     0
 10
98.0571
 20
50.9901
 30
0.0
 11
84.0574
 21
50.9901
 31
0.0
  0
LINE
  8
0
 62
     0
 10
84.0574
 20
50.9901
 30
0.0
 11
84.0574
 21
64.9912
 31
0.0
  0
LINE
  8
0
 62
     0
 10
110.251
 20
64.9912
 30
0.0
 11
124.251
 21
64.9912
 31
0.0
  0
LINE
  8
0
 62
     0
 10
124.251
 20
64.9912
 30
0.0
 11
124.251
 21
50.9901
 31
0.0
  0
LINE
  8
0
 62
     0
 10
124.251
 20
50.9901
 30
0.0
 11
110.251
 21
50.9901
 31
0.0
  0
LINE
  8
0
 62
     0
 10
110.251
 20
50.9901
 30
0.0
 11
110.251
 21
64.9912
 31
0.0
  0
LINE
  8
0
 62
     0
 10
136.445
 20
64.9912
 30
0.0
 11
150.446
 21
64.9912
 31
0.0
  0
LINE
  8
0
 62
     0
 10
150.446
 20
64.9912
 30
0.0
 11
150.446
 21
50.9901
 31
0.0
  0
LINE
  8
0
 62
     0
 10
150.446
 20
50.9901
 30
0.0
 11
136.445
 21
50.9901
 31
0.0
  0
LINE
  8
0
 62
     0
 10
136.445
 20
50.9901
 30
0.0
 11
136.445
 21
64.9912
 31
0.0
  0
LINE
  8
0
 62
     0
 10
155.495
 20
64.9912
 30
0.0
 11
169.496
 21
64.9912
 31
0.0
  0
LINE
  8
0
 62
     0
 10
169.496
 20
64.9912
 30
0.0
 11
169.496
 21
50.9901
 31
0.0
  0
LINE
  8
0
 62
     0
 10
169.496
 20
50.9901
 30
0.0
 11
155.495
 21
50.9901
 31
0.0
  0
LINE
  8
0
 62
     0
 10
155.495
 20
50.9901
 30
0.0
 11
155.495
 21
64.9912
 31
0.0
  0
LINE
  8
0
 62
     0
 10
174.545
 20
64.9912
 30
0.0
 11
188.546
 21
64.9912
 31
0.0
  0
LINE
  8
0
 62
     0
 10
188.546
 20
64.9912
 30
0.0
 11
188.546
 21
50.9901
 31
0.0
  0
LINE
  8
0
 62
     0
 10
188.546
 20
50.9901
 30
0.0
 11
174.545
 21
50.9901
 31
0.0
  0
LINE
  8
0
 62
     0
 10
174.545
 20
50.9901
 30
0.0
 11
174.545
 21
64.9912
 31
0.0
  0
LINE
  8
0
 62
     0
 10
193.595
 20
64.9912
 30
0.0
 11
207.596
 21
64.9912
 31
0.0
  0
LINE
  8
0
 62
     0
 10
207.596
 20
64.9912
 30
0.0
 11
207.596
 21
50.9901
 31
0.0
  0
LINE
  8
0
 62
     0
 10
207.596
 20
50.9901
 30
0.0
 11
193.595
 21
50.9901
 31
0.0
  0
LINE
  8
0
 62
     0
 10
193.595
 20
50.9901
 30
0.0
 11
193.595
 21
64.9912
 31
0.0
  0
LINE
  8
0
 62
     0
 10
212.645
 20
64.9912
 30
0.0
 11
226.646
 21
64.9912
 31
0.0
  0
LINE
  8
0
 62
     0
 10
226.646
 20
64.9912
 30
0.0
 11
226.646
 21
50.9901
 31
0.0
  0
LINE
  8
0
 62
     0
 10
226.646
 20
50.9901
 30
0.0
 11
212.645
 21
50.9901
 31
0.0
  0
LINE
  8
0
 62
     0
 10
212.645
 20
50.9901
 30
0.0
 11
212.645
 21
64.9912
 31
0.0
  0
LINE
  8
0
 62
     0
 10
231.695
 20
64.9912
 30
0.0
 11
245.696
 21
64.9912
 31
0.0
  0
LINE
  8
0
 62
     0
 10
245.696
 20
64.9912
 30
0.0
 11
245.696
 21
50.9901
 31
0.0
  0
LINE
  8
0
 62
     0
 10
245.696
 20
50.9901
 30
0.0
 11
231.695
 21
50.9901
 31
0.0
  0
LINE
  8
0
 62
     0
 10
231.695
 20
50.9901
 30
0.0
 11
231.695
 21
64.9912
 31
0.0
  0
LINE
  8
0
 62
     0
 10
250.745
 20
64.9912
 30
0.0
 11
264.746
 21
64.9912
 31
0.0
  0
LINE
  8
0
 62
     0
 10
264.746
 20
64.9912
 30
0.0
 11
264.746
 21
50.9901
 31
0.0
  0
LINE
  8
0
 62
     0
 10
264.746
 20
50.9901
 30
0.0
 11
250.745
 21
50.9901
 31
0.0
  0
LINE
  8
0
 62
     0
 10
250.745
 20
50.9901
 30
0.0
 11
250.745
 21
64.9912
 31
0.0
  0
LINE
  8
0
 62
     0
 10
269.795
 20
64.9912
 30
0.0
 11
283.796
 21
64.9912
 31
0.0
  0
LINE
  8
0
 62
     0
 10
283.796
 20
64.9912
 30
0.0
 11
283.796
 21
50.9901
 31
0.0
  0
LINE
  8
0
 62
     0
 10
283.796
 20
50.9901
 30
0.0
 11
269.795
 21
50.9901
 31
0.0
  0
LINE
  8
0
 62
     0
 10
269.795
 20
50.9901
 30
0.0
 11
269.795
 21
64.9912
 31
0.0
  0
LINE
  8
0
 62
     0
 10
288.845
 20
64.9912
 30
0.0
 11
302.846
 21
64.9912
 31
0.0
  0
LINE
  8
0
 62
     0
 10
302.846
 20
64.9912
 30
0.0
 11
302.846
 21
50.9901
 31
0.0
  0
LINE
  8
0
 62
     0
 10
302.846
 20
50.9901
 30
0.0
 11
288.845
 21
50.9901
 31
0.0
  0
LINE
  8
0
 62
     0
 10
288.845
 20
50.9901
 30
0.0
 11
288.845
 21
64.9912
 31
0.0
  0
LINE
  8
0
 62
     0
 10
307.895
 20
64.9912
 30
0.0
 11
321.896
 21
64.9912
 31
0.0
  0
LINE
  8
0
 62
     0
 10
321.896
 20
64.9912
 30
0.0
 11
321.896
 21
50.9901
 31
0.0
  0
LINE
  8
0
 62
     0
 10
321.896
 20
50.9901
 30
0.0
 11
307.895
 21
50.9901
 31
0.0
  0
LINE
  8
0
 62
     0
 10
307.895
 20
50.9901
 30
0.0
 11
307.895
 21
64.9912
 31
0.0
  0
LINE
  8
0
 62
     0
 10
326.945
 20
64.9912
 30
0.0
 11
340.946
 21
64.9912
 31
0.0
  0
LINE
  8
0
 62
     0
 10
340.946
 20
64.9912
 30
0.0
 11
340.946
 21
50.9901
 31
0.0
  0
LINE
  8
0
 62
     0
 10
340.946
 20
50.9901
 30
0.0
 11
326.945
 21
50.9901
 31
0.0
  0
LINE
  8
0
 62
     0
 10
326.945
 20
50.9901
 30
0.0
 11
326.945
 21
64.9912
 31
0.0
  0
LINE
  8
0
 62
     0
 10
345.995
 20
64.9912
 30
0.0
 11
359.996
 21
64.9912
 31
0.0
  0
LINE
  8
0
 62
     0
 10
359.996
 20
64.9912
 30
0.0
 11
359.996
 21
50.9901
 31
0.0
  0
LINE
  8
0
 62
     0
 10
359.996
 20
50.9901
 30
0.0
 11
345.995
 21
50.9901
 31
0.0
  0
LINE
  8
0
 62
     0
 10
345.995
 20
50.9901
 30
0.0
 11
345.995
 21
64.9912
 31
0.0
  0
LINE
  8
0
 62
     0
 10
412.669
 20
64.9912
 30
0.0
 11
426.671
 21
64.9912
 31
0.0
  0
LINE
  8
0
 62
     0
 10
426.671
 20
64.9912
 30
0.0
 11
426.671
 21
50.9901
 31
0.0
  0
LINE
  8
0
 62
     0
 10
426.671
 20
50.9901
 30
0.0
 11
412.669
 21
50.9901
 31
0.0
  0
LINE
  8
0
 62
     0
 10
412.669
 20
50.9901
 30
0.0
 11
412.669
 21
64.9912
 31
0.0
  0
LINE
  8
0
 62
     0
 10
431.719
 20
64.9912
 30
0.0
 11
445.721
 21
64.9912
 31
0.0
  0
LINE
  8
0
 62
     0
 10
445.721
 20
64.9912
 30
0.0
 11
445.721
 21
50.9901
 31
0.0
  0
LINE
  8
0
 62
     0
 10
445.721
 20
50.9901
 30
0.0
 11
431.719
 21
50.9901
 31
0.0
  0
LINE
  8
0
 62
     0
 10
431.719
 20
50.9901
 30
0.0
 11
431.719
 21
64.9912
 31
0.0
  0
LINE
  8
0
 62
     0
 10
450.769
 20
64.9912
 30
0.0
 11
464.771
 21
64.9912
 31
0.0
  0
LINE
  8
0
 62
     0
 10
464.771
 20
64.9912
 30
0.0
 11
464.771
 21
50.9901
 31
0.0
  0
LINE
  8
0
 62
     0
 10
464.771
 20
50.9901
 30
0.0
 11
450.769
 21
50.9901
 31
0.0
  0
LINE
  8
0
 62
     0
 10
450.769
 20
50.9901
 30
0.0
 11
450.769
 21
64.9912
 31
0.0
  0
LINE
  8
0
 62
     0
 10
385.833
 20
83.6154
 30
0.0
 11
385.833
 21
82.7913
 31
0.0
  0
LINE
  8
0
 62
     0
 10
385.833
 20
82.7913
 30
0.0
 11
379.564
 21
82.7913
 31
0.0
  0
LINE
  8
0
 62
     0
 10
379.564
 20
82.7913
 30
0.0
 11
379.564
 21
81.0659
 31
0.0
  0
LINE
  8
0
 62
     0
 10
379.564
 20
81.0659
 30
0.0
 11
378.361
 21
81.0659
 31
0.0
  0
LINE
  8
0
 62
     0
 10
378.361
 20
81.0659
 30
0.0
 11
378.361
 21
77.7656
 31
0.0
  0
LINE
  8
0
 62
     0
 10
378.361
 20
77.7656
 30
0.0
 11
379.564
 21
77.7656
 31
0.0
  0
LINE
  8
0
 62
     0
 10
379.564
 20
77.7656
 30
0.0
 11
379.564
 21
76.0402
 31
0.0
  0
LINE
  8
0
 62
     0
 10
379.564
 20
76.0402
 30
0.0
 11
384.034
 21
76.0402
 31
0.0
  0
LINE
  8
0
 62
     0
 10
384.034
 20
76.0402
 30
0.0
 11
384.034
 21
74.5162
 31
0.0
  0
LINE
  8
0
 62
     0
 10
384.034
 20
74.5162
 30
0.0
 11
379.331
 21
74.5162
 31
0.0
  0
LINE
  8
0
 62
     0
 10
379.331
 20
74.5162
 30
0.0
 11
379.331
 21
60.5151
 31
0.0
  0
LINE
  8
0
 62
     0
 10
379.331
 20
60.5151
 30
0.0
 11
384.034
 21
60.5151
 31
0.0
  0
LINE
  8
0
 62
     0
 10
384.034
 20
60.5151
 30
0.0
 11
384.034
 21
58.9911
 31
0.0
  0
LINE
  8
0
 62
     0
 10
384.034
 20
58.9911
 30
0.0
 11
379.564
 21
58.9911
 31
0.0
  0
LINE
  8
0
 62
     0
 10
379.564
 20
58.9911
 30
0.0
 11
379.564
 21
57.2657
 31
0.0
  0
LINE
  8
0
 62
     0
 10
379.564
 20
57.2657
 30
0.0
 11
378.361
 21
57.2657
 31
0.0
  0
LINE
  8
0
 62
     0
 10
378.361
 20
57.2657
 30
0.0
 11
378.361
 21
53.9655
 31
0.0
  0
LINE
  8
0
 62
     0
 10
378.361
 20
53.9655
 30
0.0
 11
379.564
 21
53.9655
 31
0.0
  0
LINE
  8
0
 62
     0
 10
379.564
 20
53.9655
 30
0.0
 11
379.564
 21
52.24
 31
0.0
  0
LINE
  8
0
 62
     0
 10
379.564
 20
52.24
 30
0.0
 11
385.833
 21
52.24
 31
0.0
  0
LINE
  8
0
 62
     0
 10
385.833
 20
52.24
 30
0.0
 11
385.833
 21
51.416
 31
0.0
  0
LINE
  8
0
 62
     0
 10
385.833
 20
51.416
 30
0.0
 11
388.634
 21
51.416
 31
0.0
  0
LINE
  8
0
 62
     0
 10
388.634
 20
51.416
 30
0.0
 11
388.634
 21
52.24
 31
0.0
  0
LINE
  8
0
 62
     0
 10
388.634
 20
52.24
 30
0.0
 11
391.862
 21
52.24
 31
0.0
  0
LINE
  8
0
 62
     0
 10
391.862
 20
52.24
 30
0.0
 11
391.862
 21
58.9911
 31
0.0
  0
LINE
  8
0
 62
     0
 10
391.862
 20
58.9911
 30
0.0
 11
388.634
 21
58.9911
 31
0.0
  0
LINE
  8
0
 62
     0
 10
388.634
 20
58.9911
 30
0.0
 11
388.634
 21
60.5151
 31
0.0
  0
LINE
  8
0
 62
     0
 10
388.634
 20
60.5151
 30
0.0
 11
393.333
 21
60.5151
 31
0.0
  0
LINE
  8
0
 62
     0
 10
393.333
 20
60.5151
 30
0.0
 11
393.333
 21
74.5162
 31
0.0
  0
LINE
  8
0
 62
     0
 10
393.333
 20
74.5162
 30
0.0
 11
388.634
 21
74.5162
 31
0.0
  0
LINE
  8
0
 62
     0
 10
388.634
 20
74.5162
 30
0.0
 11
388.634
 21
76.0402
 31
0.0
  0
LINE
  8
0
 62
     0
 10
388.634
 20
76.0402
 30
0.0
 11
391.862
 21
76.0402
 31
0.0
  0
LINE
  8
0
 62
     0
 10
391.862
 20
76.0402
 30
0.0
 11
391.862
 21
82.7913
 31
0.0
  0
LINE
  8
0
 62
     0
 10
391.862
 20
82.7913
 30
0.0
 11
388.634
 21
82.7913
 31
0.0
  0
LINE
  8
0
 62
     0
 10
388.634
 20
82.7913
 30
0.0
 11
388.634
 21
83.6154
 31
0.0
  0
LINE
  8
0
 62
     0
 10
388.634
 20
83.6154
 30
0.0
 11
385.833
 21
83.6154
 31
0.0
  0
LINE
  8
0
 62
     0
 10
12.6201
 20
84.0412
 30
0.0
 11
26.6209
 21
84.0412
 31
0.0
  0
LINE
  8
0
 62
     0
 10
26.6209
 20
84.0412
 30
0.0
 11
26.6209
 21
70.0401
 31
0.0
  0
LINE
  8
0
 62
     0
 10
26.6209
 20
70.0401
 30
0.0
 11
12.6201
 21
70.0401
 31
0.0
  0
LINE
  8
0
 62
     0
 10
12.6201
 20
70.0401
 30
0.0
 11
12.6201
 21
84.0412
 31
0.0
  0
LINE
  8
0
 62
     0
 10
84.0574
 20
84.0412
 30
0.0
 11
98.0571
 21
84.0412
 31
0.0
  0
LINE
  8
0
 62
     0
 10
98.0571
 20
84.0412
 30
0.0
 11
98.0571
 21
70.0401
 31
0.0
  0
LINE
  8
0
 62
     0
 10
98.0571
 20
70.0401
 30
0.0
 11
84.0574
 21
70.0401
 31
0.0
  0
LINE
  8
0
 62
     0
 10
84.0574
 20
70.0401
 30
0.0
 11
84.0574
 21
84.0412
 31
0.0
  0
LINE
  8
0
 62
     0
 10
107.87
 20
84.0412
 30
0.0
 11
121.871
 21
84.0412
 31
0.0
  0
LINE
  8
0
 62
     0
 10
121.871
 20
84.0412
 30
0.0
 11
121.871
 21
70.0401
 31
0.0
  0
LINE
  8
0
 62
     0
 10
121.871
 20
70.0401
 30
0.0
 11
107.87
 21
70.0401
 31
0.0
  0
LINE
  8
0
 62
     0
 10
107.87
 20
70.0401
 30
0.0
 11
107.87
 21
84.0412
 31
0.0
  0
LINE
  8
0
 62
     0
 10
131.682
 20
84.0412
 30
0.0
 11
145.682
 21
84.0412
 31
0.0
  0
LINE
  8
0
 62
     0
 10
145.682
 20
84.0412
 30
0.0
 11
145.682
 21
70.0401
 31
0.0
  0
LINE
  8
0
 62
     0
 10
145.682
 20
70.0401
 30
0.0
 11
131.682
 21
70.0401
 31
0.0
  0
LINE
  8
0
 62
     0
 10
131.682
 20
70.0401
 30
0.0
 11
131.682
 21
84.0412
 31
0.0
  0
LINE
  8
0
 62
     0
 10
150.732
 20
84.0412
 30
0.0
 11
164.732
 21
84.0412
 31
0.0
  0
LINE
  8
0
 62
     0
 10
164.732
 20
84.0412
 30
0.0
 11
164.732
 21
70.0401
 31
0.0
  0
LINE
  8
0
 62
     0
 10
164.732
 20
70.0401
 30
0.0
 11
150.732
 21
70.0401
 31
0.0
  0
LINE
  8
0
 62
     0
 10
150.732
 20
70.0401
 30
0.0
 11
150.732
 21
84.0412
 31
0.0
  0
LINE
  8
0
 62
     0
 10
169.782
 20
84.0412
 30
0.0
 11
183.782
 21
84.0412
 31
0.0
  0
LINE
  8
0
 62
     0
 10
183.782
 20
84.0412
 30
0.0
 11
183.782
 21
70.0401
 31
0.0
  0
LINE
  8
0
 62
     0
 10
183.782
 20
70.0401
 30
0.0
 11
169.782
 21
70.0401
 31
0.0
  0
LINE
  8
0
 62
     0
 10
169.782
 20
70.0401
 30
0.0
 11
169.782
 21
84.0412
 31
0.0
  0
LINE
  8
0
 62
     0
 10
188.832
 20
84.0412
 30
0.0
 11
202.832
 21
84.0412
 31
0.0
  0
LINE
  8
0
 62
     0
 10
202.832
 20
84.0412
 30
0.0
 11
202.832
 21
70.0401
 31
0.0
  0
LINE
  8
0
 62
     0
 10
202.832
 20
70.0401
 30
0.0
 11
188.832
 21
70.0401
 31
0.0
  0
LINE
  8
0
 62
     0
 10
188.832
 20
70.0401
 30
0.0
 11
188.832
 21
84.0412
 31
0.0
  0
LINE
  8
0
 62
     0
 10
207.882
 20
84.0412
 30
0.0
 11
221.882
 21
84.0412
 31
0.0
  0
LINE
  8
0
 62
     0
 10
221.882
 20
84.0412
 30
0.0
 11
221.882
 21
70.0401
 31
0.0
  0
LINE
  8
0
 62
     0
 10
221.882
 20
70.0401
 30
0.0
 11
207.882
 21
70.0401
 31
0.0
  0
LINE
  8
0
 62
     0
 10
207.882
 20
70.0401
 30
0.0
 11
207.882
 21
84.0412
 31
0.0
  0
LINE
  8
0
 62
     0
 10
226.932
 20
84.0412
 30
0.0
 11
240.932
 21
84.0412
 31
0.0
  0
LINE
  8
0
 62
     0
 10
240.932
 20
84.0412
 30
0.0
 11
240.932
 21
70.0401
 31
0.0
  0
LINE
  8
0
 62
     0
 10
240.932
 20
70.0401
 30
0.0
 11
226.932
 21
70.0401
 31
0.0
  0
LINE
  8
0
 62
     0
 10
226.932
 20
70.0401
 30
0.0
 11
226.932
 21
84.0412
 31
0.0
  0
LINE
  8
0
 62
     0
 10
245.982
 20
84.0412
 30
0.0
 11
259.982
 21
84.0412
 31
0.0
  0
LINE
  8
0
 62
     0
 10
259.982
 20
84.0412
 30
0.0
 11
259.982
 21
70.0401
 31
0.0
  0
LINE
  8
0
 62
     0
 10
259.982
 20
70.0401
 30
0.0
 11
245.982
 21
70.0401
 31
0.0
  0
LINE
  8
0
 62
     0
 10
245.982
 20
70.0401
 30
0.0
 11
245.982
 21
84.0412
 31
0.0
  0
LINE
  8
0
 62
     0
 10
265.032
 20
84.0412
 30
0.0
 11
279.032
 21
84.0412
 31
0.0
  0
LINE
  8
0
 62
     0
 10
279.032
 20
84.0412
 30
0.0
 11
279.032
 21
70.0401
 31
0.0
  0
LINE
  8
0
 62
     0
 10
279.032
 20
70.0401
 30
0.0
 11
265.032
 21
70.0401
 31
0.0
  0
LINE
  8
0
 62
     0
 10
265.032
 20
70.0401
 30
0.0
 11
265.032
 21
84.0412
 31
0.0
  0
LINE
  8
0
 62
     0
 10
284.082
 20
84.0412
 30
0.0
 11
298.082
 21
84.0412
 31
0.0
  0
LINE
  8
0
 62
     0
 10
298.082
 20
84.0412
 30
0.0
 11
298.082
 21
70.0401
 31
0.0
  0
LINE
  8
0
 62
     0
 10
298.082
 20
70.0401
 30
0.0
 11
284.082
 21
70.0401
 31
0.0
  0
LINE
  8
0
 62
     0
 10
284.082
 20
70.0401
 30
0.0
 11
284.082
 21
84.0412
 31
0.0
  0
LINE
  8
0
 62
     0
 10
303.132
 20
84.0412
 30
0.0
 11
317.132
 21
84.0412
 31
0.0
  0
LINE
  8
0
 62
     0
 10
317.132
 20
84.0412
 30
0.0
 11
317.132
 21
70.0401
 31
0.0
  0
LINE
  8
0
 62
     0
 10
317.132
 20
70.0401
 30
0.0
 11
303.132
 21
70.0401
 31
0.0
  0
LINE
  8
0
 62
     0
 10
303.132
 20
70.0401
 30
0.0
 11
303.132
 21
84.0412
 31
0.0
  0
LINE
  8
0
 62
     0
 10
322.182
 20
84.0412
 30
0.0
 11
336.182
 21
84.0412
 31
0.0
  0
LINE
  8
0
 62
     0
 10
336.182
 20
84.0412
 30
0.0
 11
336.182
 21
70.0401
 31
0.0
  0
LINE
  8
0
 62
     0
 10
336.182
 20
70.0401
 30
0.0
 11
322.182
 21
70.0401
 31
0.0
  0
LINE
  8
0
 62
     0
 10
322.182
 20
70.0401
 30
0.0
 11
322.182
 21
84.0412
 31
0.0
  0
LINE
  8
0
 62
     0
 10
341.232
 20
84.0412
 30
0.0
 11
355.233
 21
84.0412
 31
0.0
  0
LINE
  8
0
 62
     0
 10
355.233
 20
84.0412
 30
0.0
 11
355.233
 21
70.0401
 31
0.0
  0
LINE
  8
0
 62
     0
 10
355.233
 20
70.0401
 30
0.0
 11
341.232
 21
70.0401
 31
0.0
  0
LINE
  8
0
 62
     0
 10
341.232
 20
70.0401
 30
0.0
 11
341.232
 21
84.0412
 31
0.0
  0
LINE
  8
0
 62
     0
 10
360.281
 20
84.0412
 30
0.0
 11
374.283
 21
84.0412
 31
0.0
  0
LINE
  8
0
 62
     0
 10
374.283
 20
84.0412
 30
0.0
 11
374.283
 21
70.0401
 31
0.0
  0
LINE
  8
0
 62
     0
 10
374.283
 20
70.0401
 30
0.0
 11
360.281
 21
70.0401
 31
0.0
  0
LINE
  8
0
 62
     0
 10
360.281
 20
70.0401
 30
0.0
 11
360.281
 21
84.0412
 31
0.0
  0
LINE
  8
0
 62
     0
 10
412.669
 20
84.0412
 30
0.0
 11
426.671
 21
84.0412
 31
0.0
  0
LINE
  8
0
 62
     0
 10
426.671
 20
84.0412
 30
0.0
 11
426.671
 21
70.0401
 31
0.0
  0
LINE
  8
0
 62
     0
 10
426.671
 20
70.0401
 30
0.0
 11
412.669
 21
70.0401
 31
0.0
  0
LINE
  8
0
 62
     0
 10
412.669
 20
70.0401
 30
0.0
 11
412.669
 21
84.0412
 31
0.0
  0
LINE
  8
0
 62
     0
 10
431.719
 20
84.0412
 30
0.0
 11
445.721
 21
84.0412
 31
0.0
  0
LINE
  8
0
 62
     0
 10
445.721
 20
84.0412
 30
0.0
 11
445.721
 21
70.0401
 31
0.0
  0
LINE
  8
0
 62
     0
 10
445.721
 20
70.0401
 30
0.0
 11
431.719
 21
70.0401
 31
0.0
  0
LINE
  8
0
 62
     0
 10
431.719
 20
70.0401
 30
0.0
 11
431.719
 21
84.0412
 31
0.0
  0
LINE
  8
0
 62
     0
 10
450.769
 20
84.0412
 30
0.0
 11
464.771
 21
84.0412
 31
0.0
  0
LINE
  8
0
 62
     0
 10
464.771
 20
84.0412
 30
0.0
 11
464.771
 21
70.0401
 31
0.0
  0
LINE
  8
0
 62
     0
 10
464.771
 20
70.0401
 30
0.0
 11
450.769
 21
70.0401
 31
0.0
  0
LINE
  8
0
 62
     0
 10
450.769
 20
70.0401
 30
0.0
 11
450.769
 21
84.0412
 31
0.0
  0
LINE
  8
0
 62
     0
 10
12.6201
 20
103.091
 30
0.0
 11
26.6209
 21
103.091
 31
0.0
  0
LINE
  8
0
 62
     0
 10
26.6209
 20
103.091
 30
0.0
 11
26.6209
 21
89.0901
 31
0.0
  0
LINE
  8
0
 62
     0
 10
26.6209
 20
89.0901
 30
0.0
 11
12.6201
 21
89.0901
 31
0.0
  0
LINE
  8
0
 62
     0
 10
12.6201
 20
89.0901
 30
0.0
 11
12.6201
 21
103.091
 31
0.0
  0
LINE
  8
0
 62
     0
 10
84.0574
 20
103.091
 30
0.0
 11
98.0571
 21
103.091
 31
0.0
  0
LINE
  8
0
 62
     0
 10
98.0571
 20
103.091
 30
0.0
 11
98.0571
 21
89.0901
 31
0.0
  0
LINE
  8
0
 62
     0
 10
98.0571
 20
89.0901
 30
0.0
 11
84.0574
 21
89.0901
 31
0.0
  0
LINE
  8
0
 62
     0
 10
84.0574
 20
89.0901
 30
0.0
 11
84.0574
 21
103.091
 31
0.0
  0
LINE
  8
0
 62
     0
 10
103.107
 20
103.091
 30
0.0
 11
117.107
 21
103.091
 31
0.0
  0
LINE
  8
0
 62
     0
 10
117.107
 20
103.091
 30
0.0
 11
117.107
 21
89.0901
 31
0.0
  0
LINE
  8
0
 62
     0
 10
117.107
 20
89.0901
 30
0.0
 11
103.107
 21
89.0901
 31
0.0
  0
LINE
  8
0
 62
     0
 10
103.107
 20
89.0901
 30
0.0
 11
103.107
 21
103.091
 31
0.0
  0
LINE
  8
0
 62
     0
 10
122.157
 20
103.091
 30
0.0
 11
136.157
 21
103.091
 31
0.0
  0
LINE
  8
0
 62
     0
 10
136.157
 20
103.091
 30
0.0
 11
136.157
 21
89.0901
 31
0.0
  0
LINE
  8
0
 62
     0
 10
136.157
 20
89.0901
 30
0.0
 11
122.157
 21
89.0901
 31
0.0
  0
LINE
  8
0
 62
     0
 10
122.157
 20
89.0901
 30
0.0
 11
122.157
 21
103.091
 31
0.0
  0
LINE
  8
0
 62
     0
 10
141.207
 20
103.091
 30
0.0
 11
155.207
 21
103.091
 31
0.0
  0
LINE
  8
0
 62
     0
 10
155.207
 20
103.091
 30
0.0
 11
155.207
 21
89.0901
 31
0.0
  0
LINE
  8
0
 62
     0
 10
155.207
 20
89.0901
 30
0.0
 11
141.207
 21
89.0901
 31
0.0
  0
LINE
  8
0
 62
     0
 10
141.207
 20
89.0901
 30
0.0
 11
141.207
 21
103.091
 31
0.0
  0
LINE
  8
0
 62
     0
 10
160.257
 20
103.091
 30
0.0
 11
174.257
 21
103.091
 31
0.0
  0
LINE
  8
0
 62
     0
 10
174.257
 20
103.091
 30
0.0
 11
174.257
 21
89.0901
 31
0.0
  0
LINE
  8
0
 62
     0
 10
174.257
 20
89.0901
 30
0.0
 11
160.257
 21
89.0901
 31
0.0
  0
LINE
  8
0
 62
     0
 10
160.257
 20
89.0901
 30
0.0
 11
160.257
 21
103.091
 31
0.0
  0
LINE
  8
0
 62
     0
 10
179.307
 20
103.091
 30
0.0
 11
193.307
 21
103.091
 31
0.0
  0
LINE
  8
0
 62
     0
 10
193.307
 20
103.091
 30
0.0
 11
193.307
 21
89.0901
 31
0.0
  0
LINE
  8
0
 62
     0
 10
193.307
 20
89.0901
 30
0.0
 11
179.307
 21
89.0901
 31
0.0
  0
LINE
  8
0
 62
     0
 10
179.307
 20
89.0901
 30
0.0
 11
179.307
 21
103.091
 31
0.0
  0
LINE
  8
0
 62
     0
 10
198.357
 20
103.091
 30
0.0
 11
212.357
 21
103.091
 31
0.0
  0
LINE
  8
0
 62
     0
 10
212.357
 20
103.091
 30
0.0
 11
212.357
 21
89.0901
 31
0.0
  0
LINE
  8
0
 62
     0
 10
212.357
 20
89.0901
 30
0.0
 11
198.357
 21
89.0901
 31
0.0
  0
LINE
  8
0
 62
     0
 10
198.357
 20
89.0901
 30
0.0
 11
198.357
 21
103.091
 31
0.0
  0
LINE
  8
0
 62
     0
 10
217.407
 20
103.091
 30
0.0
 11
231.407
 21
103.091
 31
0.0
  0
LINE
  8
0
 62
     0
 10
231.407
 20
103.091
 30
0.0
 11
231.407
 21
89.0901
 31
0.0
  0
LINE
  8
0
 62
     0
 10
231.407
 20
89.0901
 30
0.0
 11
217.407
 21
89.0901
 31
0.0
  0
LINE
  8
0
 62
     0
 10
217.407
 20
89.0901
 30
0.0
 11
217.407
 21
103.091
 31
0.0
  0
LINE
  8
0
 62
     0
 10
236.457
 20
103.091
 30
0.0
 11
250.457
 21
103.091
 31
0.0
  0
LINE
  8
0
 62
     0
 10
250.457
 20
103.091
 30
0.0
 11
250.457
 21
89.0901
 31
0.0
  0
LINE
  8
0
 62
     0
 10
250.457
 20
89.0901
 30
0.0
 11
236.457
 21
89.0901
 31
0.0
  0
LINE
  8
0
 62
     0
 10
236.457
 20
89.0901
 30
0.0
 11
236.457
 21
103.091
 31
0.0
  0
LINE
  8
0
 62
     0
 10
255.506
 20
103.091
 30
0.0
 11
269.507
 21
103.091
 31
0.0
  0
LINE
  8
0
 62
     0
 10
269.507
 20
103.091
 30
0.0
 11
269.507
 21
89.0901
 31
0.0
  0
LINE
  8
0
 62
     0
 10
269.507
 20
89.0901
 30
0.0
 11
255.506
 21
89.0901
 31
0.0
  0
LINE
  8
0
 62
     0
 10
255.506
 20
89.0901
 30
0.0
 11
255.506
 21
103.091
 31
0.0
  0
LINE
  8
0
 62
     0
 10
274.557
 20
103.091
 30
0.0
 11
288.557
 21
103.091
 31
0.0
  0
LINE
  8
0
 62
     0
 10
288.557
 20
103.091
 30
0.0
 11
288.557
 21
89.0901
 31
0.0
  0
LINE
  8
0
 62
     0
 10
288.557
 20
89.0901
 30
0.0
 11
274.557
 21
89.0901
 31
0.0
  0
LINE
  8
0
 62
     0
 10
274.557
 20
89.0901
 30
0.0
 11
274.557
 21
103.091
 31
0.0
  0
LINE
  8
0
 62
     0
 10
293.607
 20
103.091
 30
0.0
 11
307.607
 21
103.091
 31
0.0
  0
LINE
  8
0
 62
     0
 10
307.607
 20
103.091
 30
0.0
 11
307.607
 21
89.0901
 31
0.0
  0
LINE
  8
0
 62
     0
 10
307.607
 20
89.0901
 30
0.0
 11
293.607
 21
89.0901
 31
0.0
  0
LINE
  8
0
 62
     0
 10
293.607
 20
89.0901
 30
0.0
 11
293.607
 21
103.091
 31
0.0
  0
LINE
  8
0
 62
     0
 10
312.657
 20
103.091
 30
0.0
 11
326.657
 21
103.091
 31
0.0
  0
LINE
  8
0
 62
     0
 10
326.657
 20
103.091
 30
0.0
 11
326.657
 21
89.0901
 31
0.0
  0
LINE
  8
0
 62
     0
 10
326.657
 20
89.0901
 30
0.0
 11
312.657
 21
89.0901
 31
0.0
  0
LINE
  8
0
 62
     0
 10
312.657
 20
89.0901
 30
0.0
 11
312.657
 21
103.091
 31
0.0
  0
LINE
  8
0
 62
     0
 10
331.707
 20
103.091
 30
0.0
 11
345.707
 21
103.091
 31
0.0
  0
LINE
  8
0
 62
     0
 10
345.707
 20
103.091
 30
0.0
 11
345.707
 21
89.0901
 31
0.0
  0
LINE
  8
0
 62
     0
 10
345.707
 20
89.0901
 30
0.0
 11
331.707
 21
89.0901
 31
0.0
  0
LINE
  8
0
 62
     0
 10
331.707
 20
89.0901
 30
0.0
 11
331.707
 21
103.091
 31
0.0
  0
LINE
  8
0
 62
     0
 10
350.757
 20
103.091
 30
0.0
 11
364.758
 21
103.091
 31
0.0
  0
LINE
  8
0
 62
     0
 10
364.758
 20
103.091
 30
0.0
 11
364.758
 21
89.0901
 31
0.0
  0
LINE
  8
0
 62
     0
 10
364.758
 20
89.0901
 30
0.0
 11
350.757
 21
89.0901
 31
0.0
  0
LINE
  8
0
 62
     0
 10
350.757
 20
89.0901
 30
0.0
 11
350.757
 21
103.091
 31
0.0
  0
LINE
  8
0
 62
     0
 10
374.569
 20
103.091
 30
0.0
 11
388.571
 21
103.091
 31
0.0
  0
LINE
  8
0
 62
     0
 10
388.571
 20
103.091
 30
0.0
 11
388.571
 21
89.0901
 31
0.0
  0
LINE
  8
0
 62
     0
 10
388.571
 20
89.0901
 30
0.0
 11
374.569
 21
89.0901
 31
0.0
  0
LINE
  8
0
 62
     0
 10
374.569
 20
89.0901
 30
0.0
 11
374.569
 21
103.091
 31
0.0
  0
LINE
  8
0
 62
     0
 10
412.669
 20
103.091
 30
0.0
 11
426.671
 21
103.091
 31
0.0
  0
LINE
  8
0
 62
     0
 10
426.671
 20
103.091
 30
0.0
 11
426.671
 21
89.0901
 31
0.0
  0
LINE
  8
0
 62
     0
 10
426.671
 20
89.0901
 30
0.0
 11
412.669
 21
89.0901
 31
0.0
  0
LINE
  8
0
 62
     0
 10
412.669
 20
89.0901
 30
0.0
 11
412.669
 21
103.091
 31
0.0
  0
LINE
  8
0
 62
     0
 10
431.719
 20
103.091
 30
0.0
 11
445.721
 21
103.091
 31
0.0
  0
LINE
  8
0
 62
     0
 10
445.721
 20
103.091
 30
0.0
 11
445.721
 21
89.0901
 31
0.0
  0
LINE
  8
0
 62
     0
 10
445.721
 20
89.0901
 30
0.0
 11
431.719
 21
89.0901
 31
0.0
  0
LINE
  8
0
 62
     0
 10
431.719
 20
89.0901
 30
0.0
 11
431.719
 21
103.091
 31
0.0
  0
LINE
  8
0
 62
     0
 10
450.769
 20
103.091
 30
0.0
 11
464.771
 21
103.091
 31
0.0
  0
LINE
  8
0
 62
     0
 10
464.771
 20
103.091
 30
0.0
 11
464.771
 21
89.0901
 31
0.0
  0
LINE
  8
0
 62
     0
 10
464.771
 20
89.0901
 30
0.0
 11
450.769
 21
89.0901
 31
0.0
  0
LINE
  8
0
 62
     0
 10
450.769
 20
89.0901
 30
0.0
 11
450.769
 21
103.091
 31
0.0
  0
LINE
  8
0
 62
     0
 10
12.6201
 20
122.141
 30
0.0
 11
26.6209
 21
122.141
 31
0.0
  0
LINE
  8
0
 62
     0
 10
26.6209
 20
122.141
 30
0.0
 11
26.6209
 21
108.14
 31
0.0
  0
LINE
  8
0
 62
     0
 10
26.6209
 20
108.14
 30
0.0
 11
12.6201
 21
108.14
 31
0.0
  0
LINE
  8
0
 62
     0
 10
12.6201
 20
108.14
 30
0.0
 11
12.6201
 21
122.141
 31
0.0
  0
ENDSEC
  0
EOF
