<svg width="457.2mm" height="114.3mm" viewBox="0 0 457.2 114.3" xmlns="http://www.w3.org/2000/svg"><g id="svgGroup" stroke-linecap="round" fill-rule="evenodd" font-size="9pt" stroke="#000" stroke-width="0.25mm" fill="none" style="stroke:#000;stroke-width:0.25mm;fill:none"><path d="M 0 114.3 L 457.2 114.3 L 457.2 0 L 0 0 L 0 114.3 Z M 245.913 21.575 L 258.913 21.575 A 0.5 0.5 0 0 1 259.413 22.075 L 259.413 35.075 A 0.5 0.5 0 0 1 258.913 35.575 L 245.913 35.575 A 0.5 0.5 0 0 1 245.413 35.075 L 245.413 22.075 A 0.5 0.5 0 0 1 245.913 21.575 Z M 3.025 21.575 L 16.025 21.575 A 0.5 0.5 0 0 1 16.525 22.075 L 16.525 35.075 A 0.5 0.5 0 0 1 16.025 35.575 L 3.025 35.575 A 0.5 0.5 0 0 1 2.525 35.075 L 2.525 22.075 A 0.5 0.5 0 0 1 3.025 21.575 Z M 74.463 21.575 L 87.463 21.575 A 0.5 0.5 0 0 1 87.963 22.075 L 87.963 35.075 A 0.5 0.5 0 0 1 87.463 35.575 L 74.463 35.575 A 0.5 0.5 0 0 1 73.963 35.075 L 73.963 22.075 A 0.5 0.5 0 0 1 74.463 21.575 Z M 93.513 21.575 L 106.513 21.575 A 0.5 0.5 0 0 1 107.013 22.075 L 107.013 35.075 A 0.5 0.5 0 0 1 106.513 35.575 L 93.513 35.575 A 0.5 0.5 0 0 1 93.013 35.075 L 93.013 22.075 A 0.5 0.5 0 0 1 93.513 21.575 Z M 112.563 21.575 L 125.563 21.575 A 0.5 0.5 0 0 1 126.063 22.075 L 126.063 35.075 A 0.5 0.5 0 0 1 125.563 35.575 L 112.563 35.575 A 0.5 0.5 0 0 1 112.063 35.075 L 112.063 22.075 A 0.5 0.5 0 0 1 112.563 21.575 Z M 131.613 21.575 L 144.613 21.575 A 0.5 0.5 0 0 1 145.113 22.075 L 145.113 35.075 A 0.5 0.5 0 0 1 144.613 35.575 L 131.613 35.575 A 0.5 0.5 0 0 1 131.113 35.075 L 131.113 22.075 A 0.5 0.5 0 0 1 131.613 21.575 Z M 150.663 21.575 L 163.663 21.575 A 0.5 0.5 0 0 1 164.163 22.075 L 164.163 35.075 A 0.5 0.5 0 0 1 163.663 35.575 L 150.663 35.575 A 0.5 0.5 0 0 1 150.163 35.075 L 150.163 22.075 A 0.5 0.5 0 0 1 150.663 21.575 Z M 169.713 21.575 L 182.713 21.575 A 0.5 0.5 0 0 1 183.213 22.075 L 183.213 35.075 A 0.5 0.5 0 0 1 182.713 35.575 L 169.713 35.575 A 0.5 0.5 0 0 1 169.213 35.075 L 169.213 22.075 A 0.5 0.5 0 0 1 169.713 21.575 Z M 188.763 21.575 L 201.763 21.575 A 0.5 0.5 0 0 1 202.263 22.075 L 202.263 35.075 A 0.5 0.5 0 0 1 201.763 35.575 L 188.763 35.575 A 0.5 0.5 0 0 1 188.263 35.075 L 188.263 22.075 A 0.5 0.5 0 0 1 188.763 21.575 Z M 207.813 21.575 L 220.813 21.575 A 0.5 0.5 0 0 1 221.313 22.075 L 221.313 35.075 A 0.5 0.5 0 0 1 220.813 35.575 L 207.813 35.575 A 0.5 0.5 0 0 1 207.313 35.075 L 207.313 22.075 A 0.5 0.5 0 0 1 207.813 21.575 Z M 226.863 21.575 L 239.863 21.575 A 0.5 0.5 0 0 1 240.363 22.075 L 240.363 35.075 A 0.5 0.5 0 0 1 239.863 35.575 L 226.863 35.575 A 0.5 0.5 0 0 1 226.363 35.075 L 226.363 22.075 A 0.5 0.5 0 0 1 226.863 21.575 Z M 264.963 21.575 L 277.963 21.575 A 0.5 0.5 0 0 1 278.463 22.075 L 278.463 35.075 A 0.5 0.5 0 0 1 277.963 35.575 L 264.963 35.575 A 0.5 0.5 0 0 1 264.463 35.075 L 264.463 22.075 A 0.5 0.5 0 0 1 264.963 21.575 Z M 284.013 21.575 L 297.013 21.575 A 0.5 0.5 0 0 1 297.513 22.075 L 297.513 35.075 A 0.5 0.5 0 0 1 297.013 35.575 L 284.013 35.575 A 0.5 0.5 0 0 1 283.513 35.075 L 283.513 22.075 A 0.5 0.5 0 0 1 284.013 21.575 Z M 303.063 21.575 L 316.063 21.575 A 0.5 0.5 0 0 1 316.563 22.075 L 316.563 35.075 A 0.5 0.5 0 0 1 316.063 35.575 L 303.063 35.575 A 0.5 0.5 0 0 1 302.563 35.075 L 302.563 22.075 A 0.5 0.5 0 0 1 303.063 21.575 Z M 322.113 21.575 L 335.113 21.575 A 0.5 0.5 0 0 1 335.613 22.075 L 335.613 35.075 A 0.5 0.5 0 0 1 335.113 35.575 L 322.113 35.575 A 0.5 0.5 0 0 1 321.613 35.075 L 321.613 22.075 A 0.5 0.5 0 0 1 322.113 21.575 Z M 341.163 21.575 L 354.163 21.575 A 0.5 0.5 0 0 1 354.663 22.075 L 354.663 35.075 A 0.5 0.5 0 0 1 354.163 35.575 L 341.163 35.575 A 0.5 0.5 0 0 1 340.663 35.075 L 340.663 22.075 A 0.5 0.5 0 0 1 341.163 21.575 Z M 364.975 21.575 L 377.975 21.575 A 0.5 0.5 0 0 1 378.475 22.075 L 378.475 35.075 A 0.5 0.5 0 0 1 377.975 35.575 L 364.975 35.575 A 0.5 0.5 0 0 1 364.475 35.075 L 364.475 22.075 A 0.5 0.5 0 0 1 364.975 21.575 Z M 403.075 21.575 L 416.075 21.575 A 0.5 0.5 0 0 1 416.575 22.075 L 416.575 35.075 A 0.5 0.5 0 0 1 416.075 35.575 L 403.075 35.575 A 0.5 0.5 0 0 1 402.575 35.075 L 402.575 22.075 A 0.5 0.5 0 0 1 403.075 21.575 Z M 422.125 21.575 L 435.125 21.575 A 0.5 0.5 0 0 1 435.625 22.075 L 435.625 35.075 A 0.5 0.5 0 0 1 435.125 35.575 L 422.125 35.575 A 0.5 0.5 0 0 1 421.625 35.075 L 421.625 22.075 A 0.5 0.5 0 0 1 422.125 21.575 Z M 441.175 21.575 L 454.175 21.575 A 0.5 0.5 0 0 1 454.675 22.075 L 454.675 35.075 A 0.5 0.5 0 0 1 454.175 35.575 L 441.175 35.575 A 0.5 0.5 0 0 1 440.675 35.075 L 440.675 22.075 A 0.5 0.5 0 0 1 441.175 21.575 Z M 74.463 40.625 L 87.463 40.625 A 0.5 0.5 0 0 1 87.963 41.125 L 87.963 54.125 A 0.5 0.5 0 0 1 87.463 54.625 L 74.463 54.625 A 0.5 0.5 0 0 1 73.963 54.125 L 73.963 41.125 A 0.5 0.5 0 0 1 74.463 40.625 Z M 98.275 40.625 L 111.275 40.625 A 0.5 0.5 0 0 1 111.775 41.125 L 111.775 54.125 A 0.5 0.5 0 0 1 111.275 54.625 L 98.275 54.625 A 0.5 0.5 0 0 1 97.775 54.125 L 97.775 41.125 A 0.5 0.5 0 0 1 98.275 40.625 Z M 122.088 40.625 L 135.088 40.625 A 0.5 0.5 0 0 1 135.588 41.125 L 135.588 54.125 A 0.5 0.5 0 0 1 135.088 54.625 L 122.088 54.625 A 0.5 0.5 0 0 1 121.588 54.125 L 121.588 41.125 A 0.5 0.5 0 0 1 122.088 40.625 Z M 141.138 40.625 L 154.138 40.625 A 0.5 0.5 0 0 1 154.638 41.125 L 154.638 54.125 A 0.5 0.5 0 0 1 154.138 54.625 L 141.138 54.625 A 0.5 0.5 0 0 1 140.638 54.125 L 140.638 41.125 A 0.5 0.5 0 0 1 141.138 40.625 Z M 160.188 40.625 L 173.188 40.625 A 0.5 0.5 0 0 1 173.688 41.125 L 173.688 54.125 A 0.5 0.5 0 0 1 173.188 54.625 L 160.188 54.625 A 0.5 0.5 0 0 1 159.688 54.125 L 159.688 41.125 A 0.5 0.5 0 0 1 160.188 40.625 Z M 179.238 40.625 L 192.238 40.625 A 0.5 0.5 0 0 1 192.738 41.125 L 192.738 54.125 A 0.5 0.5 0 0 1 192.238 54.625 L 179.238 54.625 A 0.5 0.5 0 0 1 178.738 54.125 L 178.738 41.125 A 0.5 0.5 0 0 1 179.238 40.625 Z M 198.288 40.625 L 211.288 40.625 A 0.5 0.5 0 0 1 211.788 41.125 L 211.788 54.125 A 0.5 0.5 0 0 1 211.288 54.625 L 198.288 54.625 A 0.5 0.5 0 0 1 197.788 54.125 L 197.788 41.125 A 0.5 0.5 0 0 1 198.288 40.625 Z M 217.338 40.625 L 230.338 40.625 A 0.5 0.5 0 0 1 230.838 41.125 L 230.838 54.125 A 0.5 0.5 0 0 1 230.338 54.625 L 217.338 54.625 A 0.5 0.5 0 0 1 216.838 54.125 L 216.838 41.125 A 0.5 0.5 0 0 1 217.338 40.625 Z M 236.388 40.625 L 249.388 40.625 A 0.5 0.5 0 0 1 249.888 41.125 L 249.888 54.125 A 0.5 0.5 0 0 1 249.388 54.625 L 236.388 54.625 A 0.5 0.5 0 0 1 235.888 54.125 L 235.888 41.125 A 0.5 0.5 0 0 1 236.388 40.625 Z M 255.438 40.625 L 268.438 40.625 A 0.5 0.5 0 0 1 268.938 41.125 L 268.938 54.125 A 0.5 0.5 0 0 1 268.438 54.625 L 255.438 54.625 A 0.5 0.5 0 0 1 254.938 54.125 L 254.938 41.125 A 0.5 0.5 0 0 1 255.438 40.625 Z M 274.488 40.625 L 287.488 40.625 A 0.5 0.5 0 0 1 287.988 41.125 L 287.988 54.125 A 0.5 0.5 0 0 1 287.488 54.625 L 274.488 54.625 A 0.5 0.5 0 0 1 273.988 54.125 L 273.988 41.125 A 0.5 0.5 0 0 1 274.488 40.625 Z M 293.538 40.625 L 306.538 40.625 A 0.5 0.5 0 0 1 307.038 41.125 L 307.038 54.125 A 0.5 0.5 0 0 1 306.538 54.625 L 293.538 54.625 A 0.5 0.5 0 0 1 293.038 54.125 L 293.038 41.125 A 0.5 0.5 0 0 1 293.538 40.625 Z M 312.588 40.625 L 325.588 40.625 A 0.5 0.5 0 0 1 326.088 41.125 L 326.088 54.125 A 0.5 0.5 0 0 1 325.588 54.625 L 312.588 54.625 A 0.5 0.5 0 0 1 312.088 54.125 L 312.088 41.125 A 0.5 0.5 0 0 1 312.588 40.625 Z M 331.638 40.625 L 344.638 40.625 A 0.5 0.5 0 0 1 345.138 41.125 L 345.138 54.125 A 0.5 0.5 0 0 1 344.638 54.625 L 331.638 54.625 A 0.5 0.5 0 0 1 331.138 54.125 L 331.138 41.125 A 0.5 0.5 0 0 1 331.638 40.625 Z M 350.688 40.625 L 363.688 40.625 A 0.5 0.5 0 0 1 364.188 41.125 L 364.188 54.125 A 0.5 0.5 0 0 1 363.688 54.625 L 350.688 54.625 A 0.5 0.5 0 0 1 350.188 54.125 L 350.188 41.125 A 0.5 0.5 0 0 1 350.688 40.625 Z M 383.238 50.65 L 383.238 63.65 A 0.5 0.5 0 0 1 382.738 64.15 L 369.738 64.15 A 0.5 0.5 0 0 1 369.238 63.65 L 369.238 50.65 A 0.5 0.5 0 0 1 369.738 50.15 L 382.738 50.15 A 0.5 0.5 0 0 1 383.238 50.65 Z M 403.075 40.625 L 416.075 40.625 A 0.5 0.5 0 0 1 416.575 41.125 L 416.575 54.125 A 0.5 0.5 0 0 1 416.075 54.625 L 403.075 54.625 A 0.5 0.5 0 0 1 402.575 54.125 L 402.575 41.125 A 0.5 0.5 0 0 1 403.075 40.625 Z M 422.125 40.625 L 435.125 40.625 A 0.5 0.5 0 0 1 435.625 41.125 L 435.625 54.125 A 0.5 0.5 0 0 1 435.125 54.625 L 422.125 54.625 A 0.5 0.5 0 0 1 421.625 54.125 L 421.625 41.125 A 0.5 0.5 0 0 1 422.125 40.625 Z M 441.175 40.625 L 454.175 40.625 A 0.5 0.5 0 0 1 454.675 41.125 L 454.675 54.125 A 0.5 0.5 0 0 1 454.175 54.625 L 441.175 54.625 A 0.5 0.5 0 0 1 440.675 54.125 L 440.675 41.125 A 0.5 0.5 0 0 1 441.175 40.625 Z M 74.463 59.675 L 87.463 59.675 A 0.5 0.5 0 0 1 87.963 60.175 L 87.963 73.175 A 0.5 0.5 0 0 1 87.463 73.675 L 74.463 73.675 A 0.5 0.5 0 0 1 73.963 73.175 L 73.963 60.175 A 0.5 0.5 0 0 1 74.463 59.675 Z M 100.656 59.675 L 113.656 59.675 A 0.5 0.5 0 0 1 114.156 60.175 L 114.156 73.175 A 0.5 0.5 0 0 1 113.656 73.675 L 100.656 73.675 A 0.5 0.5 0 0 1 100.156 73.175 L 100.156 60.175 A 0.5 0.5 0 0 1 100.656 59.675 Z M 126.85 59.675 L 139.85 59.675 A 0.5 0.5 0 0 1 140.35 60.175 L 140.35 73.175 A 0.5 0.5 0 0 1 139.85 73.675 L 126.85 73.675 A 0.5 0.5 0 0 1 126.35 73.175 L 126.35 60.175 A 0.5 0.5 0 0 1 126.85 59.675 Z M 145.9 59.675 L 158.9 59.675 A 0.5 0.5 0 0 1 159.4 60.175 L 159.4 73.175 A 0.5 0.5 0 0 1 158.9 73.675 L 145.9 73.675 A 0.5 0.5 0 0 1 145.4 73.175 L 145.4 60.175 A 0.5 0.5 0 0 1 145.9 59.675 Z M 164.95 59.675 L 177.95 59.675 A 0.5 0.5 0 0 1 178.45 60.175 L 178.45 73.175 A 0.5 0.5 0 0 1 177.95 73.675 L 164.95 73.675 A 0.5 0.5 0 0 1 164.45 73.175 L 164.45 60.175 A 0.5 0.5 0 0 1 164.95 59.675 Z M 184 59.675 L 197 59.675 A 0.5 0.5 0 0 1 197.5 60.175 L 197.5 73.175 A 0.5 0.5 0 0 1 197 73.675 L 184 73.675 A 0.5 0.5 0 0 1 183.5 73.175 L 183.5 60.175 A 0.5 0.5 0 0 1 184 59.675 Z M 203.05 59.675 L 216.05 59.675 A 0.5 0.5 0 0 1 216.55 60.175 L 216.55 73.175 A 0.5 0.5 0 0 1 216.05 73.675 L 203.05 73.675 A 0.5 0.5 0 0 1 202.55 73.175 L 202.55 60.175 A 0.5 0.5 0 0 1 203.05 59.675 Z M 222.1 59.675 L 235.1 59.675 A 0.5 0.5 0 0 1 235.6 60.175 L 235.6 73.175 A 0.5 0.5 0 0 1 235.1 73.675 L 222.1 73.675 A 0.5 0.5 0 0 1 221.6 73.175 L 221.6 60.175 A 0.5 0.5 0 0 1 222.1 59.675 Z M 241.15 59.675 L 254.15 59.675 A 0.5 0.5 0 0 1 254.65 60.175 L 254.65 73.175 A 0.5 0.5 0 0 1 254.15 73.675 L 241.15 73.675 A 0.5 0.5 0 0 1 240.65 73.175 L 240.65 60.175 A 0.5 0.5 0 0 1 241.15 59.675 Z M 260.2 59.675 L 273.2 59.675 A 0.5 0.5 0 0 1 273.7 60.175 L 273.7 73.175 A 0.5 0.5 0 0 1 273.2 73.675 L 260.2 73.675 A 0.5 0.5 0 0 1 259.7 73.175 L 259.7 60.175 A 0.5 0.5 0 0 1 260.2 59.675 Z M 279.25 59.675 L 292.25 59.675 A 0.5 0.5 0 0 1 292.75 60.175 L 292.75 73.175 A 0.5 0.5 0 0 1 292.25 73.675 L 279.25 73.675 A 0.5 0.5 0 0 1 278.75 73.175 L 278.75 60.175 A 0.5 0.5 0 0 1 279.25 59.675 Z M 298.3 59.675 L 311.3 59.675 A 0.5 0.5 0 0 1 311.8 60.175 L 311.8 73.175 A 0.5 0.5 0 0 1 311.3 73.675 L 298.3 73.675 A 0.5 0.5 0 0 1 297.8 73.175 L 297.8 60.175 A 0.5 0.5 0 0 1 298.3 59.675 Z M 317.35 59.675 L 330.35 59.675 A 0.5 0.5 0 0 1 330.85 60.175 L 330.85 73.175 A 0.5 0.5 0 0 1 330.35 73.675 L 317.35 73.675 A 0.5 0.5 0 0 1 316.85 73.175 L 316.85 60.175 A 0.5 0.5 0 0 1 317.35 59.675 Z M 336.4 59.675 L 349.4 59.675 A 0.5 0.5 0 0 1 349.9 60.175 L 349.9 73.175 A 0.5 0.5 0 0 1 349.4 73.675 L 336.4 73.675 A 0.5 0.5 0 0 1 335.9 73.175 L 335.9 60.175 A 0.5 0.5 0 0 1 336.4 59.675 Z M 403.075 59.675 L 416.075 59.675 A 0.5 0.5 0 0 1 416.575 60.175 L 416.575 73.175 A 0.5 0.5 0 0 1 416.075 73.675 L 403.075 73.675 A 0.5 0.5 0 0 1 402.575 73.175 L 402.575 60.175 A 0.5 0.5 0 0 1 403.075 59.675 Z M 422.125 59.675 L 435.125 59.675 A 0.5 0.5 0 0 1 435.625 60.175 L 435.625 73.175 A 0.5 0.5 0 0 1 435.125 73.675 L 422.125 73.675 A 0.5 0.5 0 0 1 421.625 73.175 L 421.625 60.175 A 0.5 0.5 0 0 1 422.125 59.675 Z M 441.175 59.675 L 454.175 59.675 A 0.5 0.5 0 0 1 454.675 60.175 L 454.675 73.175 A 0.5 0.5 0 0 1 454.175 73.675 L 441.175 73.675 A 0.5 0.5 0 0 1 440.675 73.175 L 440.675 60.175 A 0.5 0.5 0 0 1 441.175 59.675 Z M 88.75 78.725 L 101.75 78.725 A 0.5 0.5 0 0 1 102.25 79.225 L 102.25 92.225 A 0.5 0.5 0 0 1 101.75 92.725 L 88.75 92.725 A 0.5 0.5 0 0 1 88.25 92.225 L 88.25 79.225 A 0.5 0.5 0 0 1 88.75 78.725 Z M 122.088 78.725 L 135.088 78.725 A 0.5 0.5 0 0 1 135.588 79.225 L 135.588 92.225 A 0.5 0.5 0 0 1 135.088 92.725 L 122.088 92.725 A 0.5 0.5 0 0 1 121.588 92.225 L 121.588 79.225 A 0.5 0.5 0 0 1 122.088 78.725 Z M 141.138 78.725 L 154.138 78.725 A 0.5 0.5 0 0 1 154.638 79.225 L 154.638 92.225 A 0.5 0.5 0 0 1 154.138 92.725 L 141.138 92.725 A 0.5 0.5 0 0 1 140.638 92.225 L 140.638 79.225 A 0.5 0.5 0 0 1 141.138 78.725 Z M 160.188 78.725 L 173.188 78.725 A 0.5 0.5 0 0 1 173.688 79.225 L 173.688 92.225 A 0.5 0.5 0 0 1 173.188 92.725 L 160.188 92.725 A 0.5 0.5 0 0 1 159.688 92.225 L 159.688 79.225 A 0.5 0.5 0 0 1 160.188 78.725 Z M 179.238 78.725 L 192.238 78.725 A 0.5 0.5 0 0 1 192.738 79.225 L 192.738 92.225 A 0.5 0.5 0 0 1 192.238 92.725 L 179.238 92.725 A 0.5 0.5 0 0 1 178.738 92.225 L 178.738 79.225 A 0.5 0.5 0 0 1 179.238 78.725 Z M 198.288 78.725 L 211.288 78.725 A 0.5 0.5 0 0 1 211.788 79.225 L 211.788 92.225 A 0.5 0.5 0 0 1 211.288 92.725 L 198.288 92.725 A 0.5 0.5 0 0 1 197.788 92.225 L 197.788 79.225 A 0.5 0.5 0 0 1 198.288 78.725 Z M 217.338 78.725 L 230.338 78.725 A 0.5 0.5 0 0 1 230.838 79.225 L 230.838 92.225 A 0.5 0.5 0 0 1 230.338 92.725 L 217.338 92.725 A 0.5 0.5 0 0 1 216.838 92.225 L 216.838 79.225 A 0.5 0.5 0 0 1 217.338 78.725 Z M 236.388 78.725 L 249.388 78.725 A 0.5 0.5 0 0 1 249.888 79.225 L 249.888 92.225 A 0.5 0.5 0 0 1 249.388 92.725 L 236.388 92.725 A 0.5 0.5 0 0 1 235.888 92.225 L 235.888 79.225 A 0.5 0.5 0 0 1 236.388 78.725 Z M 255.438 78.725 L 268.438 78.725 A 0.5 0.5 0 0 1 268.938 79.225 L 268.938 92.225 A 0.5 0.5 0 0 1 268.438 92.725 L 255.438 92.725 A 0.5 0.5 0 0 1 254.938 92.225 L 254.938 79.225 A 0.5 0.5 0 0 1 255.438 78.725 Z M 274.488 78.725 L 287.488 78.725 A 0.5 0.5 0 0 1 287.988 79.225 L 287.988 92.225 A 0.5 0.5 0 0 1 287.488 92.725 L 274.488 92.725 A 0.5 0.5 0 0 1 273.988 92.225 L 273.988 79.225 A 0.5 0.5 0 0 1 274.488 78.725 Z M 293.538 78.725 L 306.538 78.725 A 0.5 0.5 0 0 1 307.038 79.225 L 307.038 92.225 A 0.5 0.5 0 0 1 306.538 92.725 L 293.538 92.725 A 0.5 0.5 0 0 1 293.038 92.225 L 293.038 79.225 A 0.5 0.5 0 0 1 293.538 78.725 Z M 317.35 78.725 L 330.35 78.725 A 0.5 0.5 0 0 1 330.85 79.225 L 330.85 92.225 A 0.5 0.5 0 0 1 330.35 92.725 L 317.35 92.725 A 0.5 0.5 0 0 1 316.85 92.225 L 316.85 79.225 A 0.5 0.5 0 0 1 317.35 78.725 Z M 341.163 78.725 L 354.163 78.725 A 0.5 0.5 0 0 1 354.663 79.225 L 354.663 92.225 A 0.5 0.5 0 0 1 354.163 92.725 L 341.163 92.725 A 0.5 0.5 0 0 1 340.663 92.225 L 340.663 79.225 A 0.5 0.5 0 0 1 341.163 78.725 Z M 403.075 78.725 L 416.075 78.725 A 0.5 0.5 0 0 1 416.575 79.225 L 416.575 92.225 A 0.5 0.5 0 0 1 416.075 92.725 L 403.075 92.725 A 0.5 0.5 0 0 1 402.575 92.225 L 402.575 79.225 A 0.5 0.5 0 0 1 403.075 78.725 Z M 422.125 78.725 L 435.125 78.725 A 0.5 0.5 0 0 1 435.625 79.225 L 435.625 92.225 A 0.5 0.5 0 0 1 435.125 92.725 L 422.125 92.725 A 0.5 0.5 0 0 1 421.625 92.225 L 421.625 79.225 A 0.5 0.5 0 0 1 422.125 78.725 Z M 441.175 78.725 L 454.175 78.725 A 0.5 0.5 0 0 1 454.675 79.225 L 454.675 92.225 A 0.5 0.5 0 0 1 454.175 92.725 L 441.175 92.725 A 0.5 0.5 0 0 1 440.675 92.225 L 440.675 79.225 A 0.5 0.5 0 0 1 441.175 78.725 Z M 103.038 97.775 L 116.038 97.775 A 0.5 0.5 0 0 1 116.538 98.275 L 116.538 111.275 A 0.5 0.5 0 0 1 116.038 111.775 L 103.038 111.775 A 0.5 0.5 0 0 1 102.538 111.275 L 102.538 98.275 A 0.5 0.5 0 0 1 103.038 97.775 Z M 122.088 97.775 L 135.088 97.775 A 0.5 0.5 0 0 1 135.588 98.275 L 135.588 111.275 A 0.5 0.5 0 0 1 135.088 111.775 L 122.088 111.775 A 0.5 0.5 0 0 1 121.588 111.275 L 121.588 98.275 A 0.5 0.5 0 0 1 122.088 97.775 Z M 207.813 97.775 L 220.813 97.775 A 0.5 0.5 0 0 1 221.313 98.275 L 221.313 111.275 A 0.5 0.5 0 0 1 220.813 111.775 L 207.813 111.775 A 0.5 0.5 0 0 1 207.313 111.275 L 207.313 98.275 A 0.5 0.5 0 0 1 207.813 97.775 Z M 293.538 97.775 L 306.538 97.775 A 0.5 0.5 0 0 1 307.038 98.275 L 307.038 111.275 A 0.5 0.5 0 0 1 306.538 111.775 L 293.538 111.775 A 0.5 0.5 0 0 1 293.038 111.275 L 293.038 98.275 A 0.5 0.5 0 0 1 293.538 97.775 Z M 312.588 97.775 L 325.588 97.775 A 0.5 0.5 0 0 1 326.088 98.275 L 326.088 111.275 A 0.5 0.5 0 0 1 325.588 111.775 L 312.588 111.775 A 0.5 0.5 0 0 1 312.088 111.275 L 312.088 98.275 A 0.5 0.5 0 0 1 312.588 97.775 Z M 403.075 97.775 L 416.075 97.775 A 0.5 0.5 0 0 1 416.575 98.275 L 416.575 111.275 A 0.5 0.5 0 0 1 416.075 111.775 L 403.075 111.775 A 0.5 0.5 0 0 1 402.575 111.275 L 402.575 98.275 A 0.5 0.5 0 0 1 403.075 97.775 Z M 422.125 97.775 L 435.125 97.775 A 0.5 0.5 0 0 1 435.625 98.275 L 435.625 111.275 A 0.5 0.5 0 0 1 435.125 111.775 L 422.125 111.775 A 0.5 0.5 0 0 1 421.625 111.275 L 421.625 98.275 A 0.5 0.5 0 0 1 422.125 97.775 Z M 441.175 97.775 L 454.175 97.775 A 0.5 0.5 0 0 1 454.675 98.275 L 454.675 111.275 A 0.5 0.5 0 0 1 454.175 111.775 L 441.175 111.775 A 0.5 0.5 0 0 1 440.675 111.275 L 440.675 98.275 A 0.5 0.5 0 0 1 441.175 97.775 Z M 3.025 2.525 L 16.025 2.525 A 0.5 0.5 0 0 1 16.525 3.025 L 16.525 16.025 A 0.5 0.5 0 0 1 16.025 16.525 L 3.025 16.525 A 0.5 0.5 0 0 1 2.525 16.025 L 2.525 3.025 A 0.5 0.5 0 0 1 3.025 2.525 Z M 3.025 40.625 L 16.025 40.625 A 0.5 0.5 0 0 1 16.525 41.125 L 16.525 54.125 A 0.5 0.5 0 0 1 16.025 54.625 L 3.025 54.625 A 0.5 0.5 0 0 1 2.525 54.125 L 2.525 41.125 A 0.5 0.5 0 0 1 3.025 40.625 Z M 3.025 59.675 L 16.025 59.675 A 0.5 0.5 0 0 1 16.525 60.175 L 16.525 73.175 A 0.5 0.5 0 0 1 16.025 73.675 L 3.025 73.675 A 0.5 0.5 0 0 1 2.525 73.175 L 2.525 60.175 A 0.5 0.5 0 0 1 3.025 59.675 Z M 3.025 78.725 L 16.025 78.725 A 0.5 0.5 0 0 1 16.525 79.225 L 16.525 92.225 A 0.5 0.5 0 0 1 16.025 92.725 L 3.025 92.725 A 0.5 0.5 0 0 1 2.525 92.225 L 2.525 79.225 A 0.5 0.5 0 0 1 3.025 78.725 Z M 3.025 97.775 L 16.025 97.775 A 0.5 0.5 0 0 1 16.525 98.275 L 16.525 111.275 A 0.5 0.5 0 0 1 16.025 111.775 L 3.025 111.775 A 0.5 0.5 0 0 1 2.525 111.275 L 2.525 98.275 A 0.5 0.5 0 0 1 3.025 97.775 Z M 382.238 42.212 L 382.238 48.212 A 0.5 0.5 0 0 1 381.738 48.712 L 367.738 48.712 A 0.5 0.5 0 0 1 367.238 48.212 L 367.238 42.212 A 0.5 0.5 0 0 1 367.738 41.712 L 381.738 41.712 A 0.5 0.5 0 0 1 382.238 42.212 Z M 382.238 66.088 L 382.238 72.088 A 0.5 0.5 0 0 1 381.738 72.588 L 367.738 72.588 A 0.5 0.5 0 0 1 367.238 72.088 L 367.238 66.088 A 0.5 0.5 0 0 1 367.738 65.588 L 381.738 65.588 A 0.5 0.5 0 0 1 382.238 66.088 Z M 80.312 79.725 L 86.312 79.725 A 0.5 0.5 0 0 1 86.812 80.225 L 86.812 94.225 A 0.5 0.5 0 0 1 86.312 94.725 L 80.312 94.725 A 0.5 0.5 0 0 1 79.812 94.225 L 79.812 80.225 A 0.5 0.5 0 0 1 80.312 79.725 Z M 104.188 79.725 L 110.188 79.725 A 0.5 0.5 0 0 1 110.688 80.225 L 110.688 94.225 A 0.5 0.5 0 0 1 110.188 94.725 L 104.188 94.725 A 0.5 0.5 0 0 1 103.688 94.225 L 103.688 80.225 A 0.5 0.5 0 0 1 104.188 79.725 Z M 144.638 98.775 L 150.638 98.775 A 0.5 0.5 0 0 1 151.138 99.275 L 151.138 113.275 A 0.5 0.5 0 0 1 150.638 113.775 L 144.638 113.775 A 0.5 0.5 0 0 1 144.138 113.275 L 144.138 99.275 A 0.5 0.5 0 0 1 144.638 98.775 Z M 277.988 98.775 L 283.988 98.775 A 0.5 0.5 0 0 1 284.488 99.275 L 284.488 113.275 A 0.5 0.5 0 0 1 283.988 113.775 L 277.988 113.775 A 0.5 0.5 0 0 1 277.488 113.275 L 277.488 99.275 A 0.5 0.5 0 0 1 277.988 98.775 Z" vector-effect="non-scaling-stroke"/></g></svg>