0
SECTION
2
HEADER
9
$INSUNITS
70
4
0
ENDSEC
0
SECTION
2
TABLES
0
TABLE
2
LTYPE
0
LTYPE
72
65
70
64
2
CONTINUOUS
3
______
73
0
40
0
0
ENDTAB
0
TABLE
2
LAYER
0
ENDTAB
0
ENDSEC
0
SECTION
2
ENTITIES
0
LINE
8
0
10
3.025
20
-2.525
11
16.025
21
-2.525
0
LINE
8
0
10
3.025
20
-16.525
11
16.025
21
-16.525
0
LINE
8
0
10
2.525
20
-3.025
11
2.525
21
-16.025
0
LINE
8
0
10
16.525
20
-3.025
11
16.525
21
-16.025
0
ARC
8
0
10
3.025
20
-3.025
40
0.5
50
90
51
180
0
ARC
8
0
10
16.025
20
-3.025
40
0.5
50
0
51
90
0
ARC
8
0
10
3.025
20
-16.025
40
0.5
50
180
51
270
0
ARC
8
0
10
16.025
20
-16.025
40
0.5
50
270
51
0
0
LINE
8
0
10
3.025
20
-21.575
11
16.025
21
-21.575
0
LINE
8
0
10
3.025
20
-35.575
11
16.025
21
-35.575
0
LINE
8
0
10
2.525
20
-22.075
11
2.525
21
-35.075
0
LINE
8
0
10
16.525
20
-22.075
11
16.525
21
-35.075
0
ARC
8
0
10
3.025
20
-22.075
40
0.5
50
90
51
180
0
ARC
8
0
10
16.025
20
-22.075
40
0.5
50
0
51
90
0
ARC
8
0
10
3.025
20
-35.075
40
0.5
50
180
51
270
0
ARC
8
0
10
16.025
20
-35.075
40
0.5
50
270
51
0
0
LINE
8
0
10
74.4625
20
-21.575
11
87.4625
21
-21.575
0
LINE
8
0
10
74.4625
20
-35.575
11
87.4625
21
-35.575
0
LINE
8
0
10
73.9625
20
-22.075
11
73.9625
21
-35.075
0
LINE
8
0
10
87.9625
20
-22.075
11
87.9625
21
-35.075
0
ARC
8
0
10
74.4625
20
-22.075
40
0.5
50
90
51
180
0
ARC
8
0
10
87.4625
20
-22.075
40
0.5
50
0
51
90
0
ARC
8
0
10
74.4625
20
-35.075
40
0.5
50
180
51
270
0
ARC
8
0
10
87.4625
20
-35.075
40
0.5
50
270
51
0
0
LINE
8
0
10
93.5125
20
-21.575
11
106.5125
21
-21.575
0
LINE
8
0
10
93.5125
20
-35.575
11
106.5125
21
-35.575
0
LINE
8
0
10
93.0125
20
-22.075
11
93.0125
21
-35.075
0
LINE
8
0
10
107.0125
20
-22.075
11
107.0125
21
-35.075
0
ARC
8
0
10
93.5125
20
-22.075
40
0.5
50
90
51
180
0
ARC
8
0
10
106.5125
20
-22.075
40
0.5
50
0
51
90
0
ARC
8
0
10
93.5125
20
-35.075
40
0.5
50
180
51
270
0
ARC
8
0
10
106.5125
20
-35.075
40
0.5
50
270
51
0
0
LINE
8
0
10
112.5625
20
-21.575
11
125.5625
21
-21.575
0
LINE
8
0
10
112.5625
20
-35.575
11
125.5625
21
-35.575
0
LINE
8
0
10
112.0625
20
-22.075
11
112.0625
21
-35.075
0
LINE
8
0
10
126.0625
20
-22.075
11
126.0625
21
-35.075
0
ARC
8
0
10
112.5625
20
-22.075
40
0.5
50
90
51
180
0
ARC
8
0
10
125.5625
20
-22.075
40
0.5
50
0
51
90
0
ARC
8
0
10
112.5625
20
-35.075
40
0.5
50
180
51
270
0
ARC
8
0
10
125.5625
20
-35.075
40
0.5
50
270
51
0
0
LINE
8
0
10
131.6125
20
-21.575
11
144.6125
21
-21.575
0
LINE
8
0
10
131.6125
20
-35.575
11
144.6125
21
-35.575
0
LINE
8
0
10
131.1125
20
-22.075
11
131.1125
21
-35.075
0
LINE
8
0
10
145.1125
20
-22.075
11
145.1125
21
-35.075
0
ARC
8
0
10
131.6125
20
-22.075
40
0.5
50
90
51
180
0
ARC
8
0
10
144.6125
20
-22.075
40
0.5
50
0
51
90
0
ARC
8
0
10
131.6125
20
-35.075
40
0.5
50
180
51
270
0
ARC
8
0
10
144.6125
20
-35.075
40
0.5
50
270
51
0
0
LINE
8
0
10
150.6625
20
-21.575
11
163.6625
21
-21.575
0
LINE
8
0
10
150.6625
20
-35.575
11
163.6625
21
-35.575
0
LINE
8
0
10
150.1625
20
-22.075
11
150.1625
21
-35.075
0
LINE
8
0
10
164.1625
20
-22.075
11
164.1625
21
-35.075
0
ARC
8
0
10
150.6625
20
-22.075
40
0.5
50
90
51
180
0
ARC
8
0
10
163.6625
20
-22.075
40
0.5
50
0
51
90
0
ARC
8
0
10
150.6625
20
-35.075
40
0.5
50
180
51
270
0
ARC
8
0
10
163.6625
20
-35.075
40
0.5
50
270
51
0
0
LINE
8
0
10
169.7125
20
-21.575
11
182.7125
21
-21.575
0
LINE
8
0
10
169.7125
20
-35.575
11
182.7125
21
-35.575
0
LINE
8
0
10
169.2125
20
-22.075
11
169.2125
21
-35.075
0
LINE
8
0
10
183.2125
20
-22.075
11
183.2125
21
-35.075
0
ARC
8
0
10
169.7125
20
-22.075
40
0.5
50
90
51
180
0
ARC
8
0
10
182.7125
20
-22.075
40
0.5
50
0
51
90
0
ARC
8
0
10
169.7125
20
-35.075
40
0.5
50
180
51
270
0
ARC
8
0
10
182.7125
20
-35.075
40
0.5
50
270
51
0
0
LINE
8
0
10
188.7625
20
-21.575
11
201.7625
21
-21.575
0
LINE
8
0
10
188.7625
20
-35.575
11
201.7625
21
-35.575
0
LINE
8
0
10
188.2625
20
-22.075
11
188.2625
21
-35.075
0
LINE
8
0
10
202.2625
20
-22.075
11
202.2625
21
-35.075
0
ARC
8
0
10
188.7625
20
-22.075
40
0.5
50
90
51
180
0
ARC
8
0
10
201.7625
20
-22.075
40
0.5
50
0
51
90
0
ARC
8
0
10
188.7625
20
-35.075
40
0.5
50
180
51
270
0
ARC
8
0
10
201.7625
20
-35.075
40
0.5
50
270
51
0
0
LINE
8
0
10
207.8125
20
-21.575
11
220.8125
21
-21.575
0
LINE
8
0
10
207.8125
20
-35.575
11
220.8125
21
-35.575
0
LINE
8
0
10
207.3125
20
-22.075
11
207.3125
21
-35.075
0
LINE
8
0
10
221.3125
20
-22.075
11
221.3125
21
-35.075
0
ARC
8
0
10
207.8125
20
-22.075
40
0.5
50
90
51
180
0
ARC
8
0
10
220.8125
20
-22.075
40
0.5
50
0
51
90
0
ARC
8
0
10
207.8125
20
-35.075
40
0.5
50
180
51
270
0
ARC
8
0
10
220.8125
20
-35.075
40
0.5
50
270
51
0
0
LINE
8
0
10
226.8625
20
-21.575
11
239.8625
21
-21.575
0
LINE
8
0
10
226.8625
20
-35.575
11
239.8625
21
-35.575
0
LINE
8
0
10
226.3625
20
-22.075
11
226.3625
21
-35.075
0
LINE
8
0
10
240.3625
20
-22.075
11
240.3625
21
-35.075
0
ARC
8
0
10
226.8625
20
-22.075
40
0.5
50
90
51
180
0
ARC
8
0
10
239.8625
20
-22.075
40
0.5
50
0
51
90
0
ARC
8
0
10
226.8625
20
-35.075
40
0.5
50
180
51
270
0
ARC
8
0
10
239.8625
20
-35.075
40
0.5
50
270
51
0
0
LINE
8
0
10
245.9125
20
-21.575
11
258.9125
21
-21.575
0
LINE
8
0
10
245.9125
20
-35.575
11
258.9125
21
-35.575
0
LINE
8
0
10
245.4125
20
-22.075
11
245.4125
21
-35.075
0
LINE
8
0
10
259.4125
20
-22.075
11
259.4125
21
-35.075
0
ARC
8
0
10
245.9125
20
-22.075
40
0.5
50
90
51
180
0
ARC
8
0
10
258.9125
20
-22.075
40
0.5
50
0
51
90
0
ARC
8
0
10
245.9125
20
-35.075
40
0.5
50
180
51
270
0
ARC
8
0
10
258.9125
20
-35.075
40
0.5
50
270
51
0
0
LINE
8
0
10
264.9625
20
-21.575
11
277.9625
21
-21.575
0
LINE
8
0
10
264.9625
20
-35.575
11
277.9625
21
-35.575
0
LINE
8
0
10
264.4625
20
-22.075
11
264.4625
21
-35.075
0
LINE
8
0
10
278.4625
20
-22.075
11
278.4625
21
-35.075
0
ARC
8
0
10
264.9625
20
-22.075
40
0.5
50
90
51
180
0
ARC
8
0
10
277.9625
20
-22.075
40
0.5
50
0
51
90
0
ARC
8
0
10
264.9625
20
-35.075
40
0.5
50
180
51
270
0
ARC
8
0
10
277.9625
20
-35.075
40
0.5
50
270
51
0
0
LINE
8
0
10
284.0125
20
-21.575
11
297.0125
21
-21.575
0
LINE
8
0
10
284.0125
20
-35.575
11
297.0125
21
-35.575
0
LINE
8
0
10
283.5125
20
-22.075
11
283.5125
21
-35.075
0
LINE
8
0
10
297.5125
20
-22.075
11
297.5125
21
-35.075
0
ARC
8
0
10
284.0125
20
-22.075
40
0.5
50
90
51
180
0
ARC
8
0
10
297.0125
20
-22.075
40
0.5
50
0
51
90
0
ARC
8
0
10
284.0125
20
-35.075
40
0.5
50
180
51
270
0
ARC
8
0
10
297.0125
20
-35.075
40
0.5
50
270
51
0
0
LINE
8
0
10
303.0625
20
-21.575
11
316.0625
21
-21.575
0
LINE
8
0
10
303.0625
20
-35.575
11
316.0625
21
-35.575
0
LINE
8
0
10
302.5625
20
-22.075
11
302.5625
21
-35.075
0
LINE
8
0
10
316.5625
20
-22.075
11
316.5625
21
-35.075
0
ARC
8
0
10
303.0625
20
-22.075
40
0.5
50
90
51
180
0
ARC
8
0
10
316.0625
20
-22.075
40
0.5
50
0
51
90
0
ARC
8
0
10
303.0625
20
-35.075
40
0.5
50
180
51
270
0
ARC
8
0
10
316.0625
20
-35.075
40
0.5
50
270
51
0
0
LINE
8
0
10
322.1125
20
-21.575
11
335.1125
21
-21.575
0
LINE
8
0
10
322.1125
20
-35.575
11
335.1125
21
-35.575
0
LINE
8
0
10
321.6125
20
-22.075
11
321.6125
21
-35.075
0
LINE
8
0
10
335.6125
20
-22.075
11
335.6125
21
-35.075
0
ARC
8
0
10
322.1125
20
-22.075
40
0.5
50
90
51
180
0
ARC
8
0
10
335.1125
20
-22.075
40
0.5
50
0
51
90
0
ARC
8
0
10
322.1125
20
-35.075
40
0.5
50
180
51
270
0
ARC
8
0
10
335.1125
20
-35.075
40
0.5
50
270
51
0
0
LINE
8
0
10
341.1625
20
-21.575
11
354.1625
21
-21.575
0
LINE
8
0
10
341.1625
20
-35.575
11
354.1625
21
-35.575
0
LINE
8
0
10
340.6625
20
-22.075
11
340.6625
21
-35.075
0
LINE
8
0
10
354.6625
20
-22.075
11
354.6625
21
-35.075
0
ARC
8
0
10
341.1625
20
-22.075
40
0.5
50
90
51
180
0
ARC
8
0
10
354.1625
20
-22.075
40
0.5
50
0
51
90
0
ARC
8
0
10
341.1625
20
-35.075
40
0.5
50
180
51
270
0
ARC
8
0
10
354.1625
20
-35.075
40
0.5
50
270
51
0
0
LINE
8
0
10
364.975
20
-21.575
11
377.975
21
-21.575
0
LINE
8
0
10
364.975
20
-35.575
11
377.975
21
-35.575
0
LINE
8
0
10
364.475
20
-22.075
11
364.475
21
-35.075
0
LINE
8
0
10
378.475
20
-22.075
11
378.475
21
-35.075
0
ARC
8
0
10
364.975
20
-22.075
40
0.5
50
90
51
180
0
ARC
8
0
10
377.975
20
-22.075
40
0.5
50
0
51
90
0
ARC
8
0
10
364.975
20
-35.075
40
0.5
50
180
51
270
0
ARC
8
0
10
377.975
20
-35.075
40
0.5
50
270
51
0
0
LINE
8
0
10
403.075
20
-21.575
11
416.075
21
-21.575
0
LINE
8
0
10
403.075
20
-35.575
11
416.075
21
-35.575
0
LINE
8
0
10
402.575
20
-22.075
11
402.575
21
-35.075
0
LINE
8
0
10
416.575
20
-22.075
11
416.575
21
-35.075
0
ARC
8
0
10
403.075
20
-22.075
40
0.5
50
90
51
180
0
ARC
8
0
10
416.075
20
-22.075
40
0.5
50
0
51
90
0
ARC
8
0
10
403.075
20
-35.075
40
0.5
50
180
51
270
0
ARC
8
0
10
416.075
20
-35.075
40
0.5
50
270
51
0
0
LINE
8
0
10
422.125
20
-21.575
11
435.125
21
-21.575
0
LINE
8
0
10
422.125
20
-35.575
11
435.125
21
-35.575
0
LINE
8
0
10
421.625
20
-22.075
11
421.625
21
-35.075
0
LINE
8
0
10
435.625
20
-22.075
11
435.625
21
-35.075
0
ARC
8
0
10
422.125
20
-22.075
40
0.5
50
90
51
180
0
ARC
8
0
10
435.125
20
-22.075
40
0.5
50
0
51
90
0
ARC
8
0
10
422.125
20
-35.075
40
0.5
50
180
51
270
0
ARC
8
0
10
435.125
20
-35.075
40
0.5
50
270
51
0
0
LINE
8
0
10
441.175
20
-21.575
11
454.175
21
-21.575
0
LINE
8
0
10
441.175
20
-35.575
11
454.175
21
-35.575
0
LINE
8
0
10
440.675
20
-22.075
11
440.675
21
-35.075
0
LINE
8
0
10
454.675
20
-22.075
11
454.675
21
-35.075
0
ARC
8
0
10
441.175
20
-22.075
40
0.5
50
90
51
180
0
ARC
8
0
10
454.175
20
-22.075
40
0.5
50
0
51
90
0
ARC
8
0
10
441.175
20
-35.075
40
0.5
50
180
51
270
0
ARC
8
0
10
454.175
20
-35.075
40
0.5
50
270
51
0
0
LINE
8
0
10
3.025
20
-40.625
11
16.025
21
-40.625
0
LINE
8
0
10
3.025
20
-54.625
11
16.025
21
-54.625
0
LINE
8
0
10
2.525
20
-41.125
11
2.525
21
-54.125
0
LINE
8
0
10
16.525
20
-41.125
11
16.525
21
-54.125
0
ARC
8
0
10
3.025
20
-41.125
40
0.5
50
90
51
180
0
ARC
8
0
10
16.025
20
-41.125
40
0.5
50
0
51
90
0
ARC
8
0
10
3.025
20
-54.125
40
0.5
50
180
51
270
0
ARC
8
0
10
16.025
20
-54.125
40
0.5
50
270
51
0
0
LINE
8
0
10
74.4625
20
-40.625
11
87.4625
21
-40.625
0
LINE
8
0
10
74.4625
20
-54.625
11
87.4625
21
-54.625
0
LINE
8
0
10
73.9625
20
-41.125
11
73.9625
21
-54.125
0
LINE
8
0
10
87.9625
20
-41.125
11
87.9625
21
-54.125
0
ARC
8
0
10
74.4625
20
-41.125
40
0.5
50
90
51
180
0
ARC
8
0
10
87.4625
20
-41.125
40
0.5
50
0
51
90
0
ARC
8
0
10
74.4625
20
-54.125
40
0.5
50
180
51
270
0
ARC
8
0
10
87.4625
20
-54.125
40
0.5
50
270
51
0
0
LINE
8
0
10
98.275
20
-40.625
11
111.275
21
-40.625
0
LINE
8
0
10
98.275
20
-54.625
11
111.275
21
-54.625
0
LINE
8
0
10
97.775
20
-41.125
11
97.775
21
-54.125
0
LINE
8
0
10
111.775
20
-41.125
11
111.775
21
-54.125
0
ARC
8
0
10
98.275
20
-41.125
40
0.5
50
90
51
180
0
ARC
8
0
10
111.275
20
-41.125
40
0.5
50
0
51
90
0
ARC
8
0
10
98.275
20
-54.125
40
0.5
50
180
51
270
0
ARC
8
0
10
111.275
20
-54.125
40
0.5
50
270
51
0
0
LINE
8
0
10
122.0875
20
-40.625
11
135.0875
21
-40.625
0
LINE
8
0
10
122.0875
20
-54.625
11
135.0875
21
-54.625
0
LINE
8
0
10
121.5875
20
-41.125
11
121.5875
21
-54.125
0
LINE
8
0
10
135.5875
20
-41.125
11
135.5875
21
-54.125
0
ARC
8
0
10
122.0875
20
-41.125
40
0.5
50
90
51
180
0
ARC
8
0
10
135.0875
20
-41.125
40
0.5
50
0
51
90
0
ARC
8
0
10
122.0875
20
-54.125
40
0.5
50
180
51
270
0
ARC
8
0
10
135.0875
20
-54.125
40
0.5
50
270
51
0
0
LINE
8
0
10
141.1375
20
-40.625
11
154.1375
21
-40.625
0
LINE
8
0
10
141.1375
20
-54.625
11
154.1375
21
-54.625
0
LINE
8
0
10
140.6375
20
-41.125
11
140.6375
21
-54.125
0
LINE
8
0
10
154.6375
20
-41.125
11
154.6375
21
-54.125
0
ARC
8
0
10
141.1375
20
-41.125
40
0.5
50
90
51
180
0
ARC
8
0
10
154.1375
20
-41.125
40
0.5
50
0
51
90
0
ARC
8
0
10
141.1375
20
-54.125
40
0.5
50
180
51
270
0
ARC
8
0
10
154.1375
20
-54.125
40
0.5
50
270
51
0
0
LINE
8
0
10
160.1875
20
-40.625
11
173.1875
21
-40.625
0
LINE
8
0
10
160.1875
20
-54.625
11
173.1875
21
-54.625
0
LINE
8
0
10
159.6875
20
-41.125
11
159.6875
21
-54.125
0
LINE
8
0
10
173.6875
20
-41.125
11
173.6875
21
-54.125
0
ARC
8
0
10
160.1875
20
-41.125
40
0.5
50
90
51
180
0
ARC
8
0
10
173.1875
20
-41.125
40
0.5
50
0
51
90
0
ARC
8
0
10
160.1875
20
-54.125
40
0.5
50
180
51
270
0
ARC
8
0
10
173.1875
20
-54.125
40
0.5
50
270
51
0
0
LINE
8
0
10
179.2375
20
-40.625
11
192.2375
21
-40.625
0
LINE
8
0
10
179.2375
20
-54.625
11
192.2375
21
-54.625
0
LINE
8
0
10
178.7375
20
-41.125
11
178.7375
21
-54.125
0
LINE
8
0
10
192.7375
20
-41.125
11
192.7375
21
-54.125
0
ARC
8
0
10
179.2375
20
-41.125
40
0.5
50
90
51
180
0
ARC
8
0
10
192.2375
20
-41.125
40
0.5
50
0
51
90
0
ARC
8
0
10
179.2375
20
-54.125
40
0.5
50
180
51
270
0
ARC
8
0
10
192.2375
20
-54.125
40
0.5
50
270
51
0
0
LINE
8
0
10
198.2875
20
-40.625
11
211.2875
21
-40.625
0
LINE
8
0
10
198.2875
20
-54.625
11
211.2875
21
-54.625
0
LINE
8
0
10
197.7875
20
-41.125
11
197.7875
21
-54.125
0
LINE
8
0
10
211.7875
20
-41.125
11
211.7875
21
-54.125
0
ARC
8
0
10
198.2875
20
-41.125
40
0.5
50
90
51
180
0
ARC
8
0
10
211.2875
20
-41.125
40
0.5
50
0
51
90
0
ARC
8
0
10
198.2875
20
-54.125
40
0.5
50
180
51
270
0
ARC
8
0
10
211.2875
20
-54.125
40
0.5
50
270
51
0
0
LINE
8
0
10
217.3375
20
-40.625
11
230.3375
21
-40.625
0
LINE
8
0
10
217.3375
20
-54.625
11
230.3375
21
-54.625
0
LINE
8
0
10
216.8375
20
-41.125
11
216.8375
21
-54.125
0
LINE
8
0
10
230.8375
20
-41.125
11
230.8375
21
-54.125
0
ARC
8
0
10
217.3375
20
-41.125
40
0.5
50
90
51
180
0
ARC
8
0
10
230.3375
20
-41.125
40
0.5
50
0
51
90
0
ARC
8
0
10
217.3375
20
-54.125
40
0.5
50
180
51
270
0
ARC
8
0
10
230.3375
20
-54.125
40
0.5
50
270
51
0
0
LINE
8
0
10
236.3875
20
-40.625
11
249.3875
21
-40.625
0
LINE
8
0
10
236.3875
20
-54.625
11
249.3875
21
-54.625
0
LINE
8
0
10
235.8875
20
-41.125
11
235.8875
21
-54.125
0
LINE
8
0
10
249.8875
20
-41.125
11
249.8875
21
-54.125
0
ARC
8
0
10
236.3875
20
-41.125
40
0.5
50
90
51
180
0
ARC
8
0
10
249.3875
20
-41.125
40
0.5
50
0
51
90
0
ARC
8
0
10
236.3875
20
-54.125
40
0.5
50
180
51
270
0
ARC
8
0
10
249.3875
20
-54.125
40
0.5
50
270
51
0
0
LINE
8
0
10
255.4375
20
-40.625
11
268.4375
21
-40.625
0
LINE
8
0
10
255.4375
20
-54.625
11
268.4375
21
-54.625
0
LINE
8
0
10
254.9375
20
-41.125
11
254.9375
21
-54.125
0
LINE
8
0
10
268.9375
20
-41.125
11
268.9375
21
-54.125
0
ARC
8
0
10
255.4375
20
-41.125
40
0.5
50
90
51
180
0
ARC
8
0
10
268.4375
20
-41.125
40
0.5
50
0
51
90
0
ARC
8
0
10
255.4375
20
-54.125
40
0.5
50
180
51
270
0
ARC
8
0
10
268.4375
20
-54.125
40
0.5
50
270
51
0
0
LINE
8
0
10
274.4875
20
-40.625
11
287.4875
21
-40.625
0
LINE
8
0
10
274.4875
20
-54.625
11
287.4875
21
-54.625
0
LINE
8
0
10
273.9875
20
-41.125
11
273.9875
21
-54.125
0
LINE
8
0
10
287.9875
20
-41.125
11
287.9875
21
-54.125
0
ARC
8
0
10
274.4875
20
-41.125
40
0.5
50
90
51
180
0
ARC
8
0
10
287.4875
20
-41.125
40
0.5
50
0
51
90
0
ARC
8
0
10
274.4875
20
-54.125
40
0.5
50
180
51
270
0
ARC
8
0
10
287.4875
20
-54.125
40
0.5
50
270
51
0
0
LINE
8
0
10
293.5375
20
-40.625
11
306.5375
21
-40.625
0
LINE
8
0
10
293.5375
20
-54.625
11
306.5375
21
-54.625
0
LINE
8
0
10
293.0375
20
-41.125
11
293.0375
21
-54.125
0
LINE
8
0
10
307.0375
20
-41.125
11
307.0375
21
-54.125
0
ARC
8
0
10
293.5375
20
-41.125
40
0.5
50
90
51
180
0
ARC
8
0
10
306.5375
20
-41.125
40
0.5
50
0
51
90
0
ARC
8
0
10
293.5375
20
-54.125
40
0.5
50
180
51
270
0
ARC
8
0
10
306.5375
20
-54.125
40
0.5
50
270
51
0
0
LINE
8
0
10
312.5875
20
-40.625
11
325.5875
21
-40.625
0
LINE
8
0
10
312.5875
20
-54.625
11
325.5875
21
-54.625
0
LINE
8
0
10
312.0875
20
-41.125
11
312.0875
21
-54.125
0
LINE
8
0
10
326.0875
20
-41.125
11
326.0875
21
-54.125
0
ARC
8
0
10
312.5875
20
-41.125
40
0.5
50
90
51
180
0
ARC
8
0
10
325.5875
20
-41.125
40
0.5
50
0
51
90
0
ARC
8
0
10
312.5875
20
-54.125
40
0.5
50
180
51
270
0
ARC
8
0
10
325.5875
20
-54.125
40
0.5
50
270
51
0
0
LINE
8
0
10
331.6375
20
-40.625
11
344.6375
21
-40.625
0
LINE
8
0
10
331.6375
20
-54.625
11
344.6375
21
-54.625
0
LINE
8
0
10
331.1375
20
-41.125
11
331.1375
21
-54.125
0
LINE
8
0
10
345.1375
20
-41.125
11
345.1375
21
-54.125
0
ARC
8
0
10
331.6375
20
-41.125
40
0.5
50
90
51
180
0
ARC
8
0
10
344.6375
20
-41.125
40
0.5
50
0
51
90
0
ARC
8
0
10
331.6375
20
-54.125
40
0.5
50
180
51
270
0
ARC
8
0
10
344.6375
20
-54.125
40
0.5
50
270
51
0
0
LINE
8
0
10
350.6875
20
-40.625
11
363.6875
21
-40.625
0
LINE
8
0
10
350.6875
20
-54.625
11
363.6875
21
-54.625
0
LINE
8
0
10
350.1875
20
-41.125
11
350.1875
21
-54.125
0
LINE
8
0
10
364.1875
20
-41.125
11
364.1875
21
-54.125
0
ARC
8
0
10
350.6875
20
-41.125
40
0.5
50
90
51
180
0
ARC
8
0
10
363.6875
20
-41.125
40
0.5
50
0
51
90
0
ARC
8
0
10
350.6875
20
-54.125
40
0.5
50
180
51
270
0
ARC
8
0
10
363.6875
20
-54.125
40
0.5
50
270
51
0
0
LINE
8
0
10
383.2375
20
-50.65
11
383.2375
21
-63.65
0
LINE
8
0
10
369.2375
20
-50.65
11
369.2375
21
-63.65
0
LINE
8
0
10
382.7375
20
-50.15
11
369.7375
21
-50.15
0
LINE
8
0
10
382.7375
20
-64.15
11
369.7375
21
-64.15
0
ARC
8
0
10
382.7375
20
-50.65
40
0.5
50
0
51
90
0
ARC
8
0
10
382.7375
20
-63.65
40
0.5
50
270
51
0
0
ARC
8
0
10
369.7375
20
-50.65
40
0.5
50
90
51
180
0
ARC
8
0
10
369.7375
20
-63.65
40
0.5
50
180
51
270
0
LINE
8
0
10
382.2375
20
-42.212
11
382.2375
21
-48.212
0
LINE
8
0
10
367.2375
20
-42.212
11
367.2375
21
-48.212
0
LINE
8
0
10
381.7375
20
-41.712
11
367.7375
21
-41.712
0
LINE
8
0
10
381.7375
20
-48.712
11
367.7375
21
-48.712
0
ARC
8
0
10
381.7375
20
-42.212
40
0.5
50
0
51
90
0
ARC
8
0
10
381.7375
20
-48.212
40
0.5
50
270
51
0
0
ARC
8
0
10
367.7375
20
-42.212
40
0.5
50
90
51
180
0
ARC
8
0
10
367.7375
20
-48.212
40
0.5
50
180
51
270
0
LINE
8
0
10
382.2375
20
-66.088
11
382.2375
21
-72.088
0
LINE
8
0
10
367.2375
20
-66.088
11
367.2375
21
-72.088
0
LINE
8
0
10
381.7375
20
-65.588
11
367.7375
21
-65.588
0
LINE
8
0
10
381.7375
20
-72.588
11
367.7375
21
-72.588
0
ARC
8
0
10
381.7375
20
-66.088
40
0.5
50
0
51
90
0
ARC
8
0
10
381.7375
20
-72.088
40
0.5
50
270
51
0
0
ARC
8
0
10
367.7375
20
-66.088
40
0.5
50
90
51
180
0
ARC
8
0
10
367.7375
20
-72.088
40
0.5
50
180
51
270
0
LINE
8
0
10
403.075
20
-40.625
11
416.075
21
-40.625
0
LINE
8
0
10
403.075
20
-54.625
11
416.075
21
-54.625
0
LINE
8
0
10
402.575
20
-41.125
11
402.575
21
-54.125
0
LINE
8
0
10
416.575
20
-41.125
11
416.575
21
-54.125
0
ARC
8
0
10
403.075
20
-41.125
40
0.5
50
90
51
180
0
ARC
8
0
10
416.075
20
-41.125
40
0.5
50
0
51
90
0
ARC
8
0
10
403.075
20
-54.125
40
0.5
50
180
51
270
0
ARC
8
0
10
416.075
20
-54.125
40
0.5
50
270
51
0
0
LINE
8
0
10
422.125
20
-40.625
11
435.125
21
-40.625
0
LINE
8
0
10
422.125
20
-54.625
11
435.125
21
-54.625
0
LINE
8
0
10
421.625
20
-41.125
11
421.625
21
-54.125
0
LINE
8
0
10
435.625
20
-41.125
11
435.625
21
-54.125
0
ARC
8
0
10
422.125
20
-41.125
40
0.5
50
90
51
180
0
ARC
8
0
10
435.125
20
-41.125
40
0.5
50
0
51
90
0
ARC
8
0
10
422.125
20
-54.125
40
0.5
50
180
51
270
0
ARC
8
0
10
435.125
20
-54.125
40
0.5
50
270
51
0
0
LINE
8
0
10
441.175
20
-40.625
11
454.175
21
-40.625
0
LINE
8
0
10
441.175
20
-54.625
11
454.175
21
-54.625
0
LINE
8
0
10
440.675
20
-41.125
11
440.675
21
-54.125
0
LINE
8
0
10
454.675
20
-41.125
11
454.675
21
-54.125
0
ARC
8
0
10
441.175
20
-41.125
40
0.5
50
90
51
180
0
ARC
8
0
10
454.175
20
-41.125
40
0.5
50
0
51
90
0
ARC
8
0
10
441.175
20
-54.125
40
0.5
50
180
51
270
0
ARC
8
0
10
454.175
20
-54.125
40
0.5
50
270
51
0
0
LINE
8
0
10
3.025
20
-59.675
11
16.025
21
-59.675
0
LINE
8
0
10
3.025
20
-73.675
11
16.025
21
-73.675
0
LINE
8
0
10
2.525
20
-60.175
11
2.525
21
-73.175
0
LINE
8
0
10
16.525
20
-60.175
11
16.525
21
-73.175
0
ARC
8
0
10
3.025
20
-60.175
40
0.5
50
90
51
180
0
ARC
8
0
10
16.025
20
-60.175
40
0.5
50
0
51
90
0
ARC
8
0
10
3.025
20
-73.175
40
0.5
50
180
51
270
0
ARC
8
0
10
16.025
20
-73.175
40
0.5
50
270
51
0
0
LINE
8
0
10
74.4625
20
-59.675
11
87.4625
21
-59.675
0
LINE
8
0
10
74.4625
20
-73.675
11
87.4625
21
-73.675
0
LINE
8
0
10
73.9625
20
-60.175
11
73.9625
21
-73.175
0
LINE
8
0
10
87.9625
20
-60.175
11
87.9625
21
-73.175
0
ARC
8
0
10
74.4625
20
-60.175
40
0.5
50
90
51
180
0
ARC
8
0
10
87.4625
20
-60.175
40
0.5
50
0
51
90
0
ARC
8
0
10
74.4625
20
-73.175
40
0.5
50
180
51
270
0
ARC
8
0
10
87.4625
20
-73.175
40
0.5
50
270
51
0
0
LINE
8
0
10
100.65625
20
-59.675
11
113.65625
21
-59.675
0
LINE
8
0
10
100.65625
20
-73.675
11
113.65625
21
-73.675
0
LINE
8
0
10
100.15625
20
-60.175
11
100.15625
21
-73.175
0
LINE
8
0
10
114.15625
20
-60.175
11
114.15625
21
-73.175
0
ARC
8
0
10
100.65625
20
-60.175
40
0.5
50
90
51
180
0
ARC
8
0
10
113.65625
20
-60.175
40
0.5
50
0
51
90
0
ARC
8
0
10
100.65625
20
-73.175
40
0.5
50
180
51
270
0
ARC
8
0
10
113.65625
20
-73.175
40
0.5
50
270
51
0
0
LINE
8
0
10
126.85
20
-59.675
11
139.85
21
-59.675
0
LINE
8
0
10
126.85
20
-73.675
11
139.85
21
-73.675
0
LINE
8
0
10
126.35
20
-60.175
11
126.35
21
-73.175
0
LINE
8
0
10
140.35
20
-60.175
11
140.35
21
-73.175
0
ARC
8
0
10
126.85
20
-60.175
40
0.5
50
90
51
180
0
ARC
8
0
10
139.85
20
-60.175
40
0.5
50
0
51
90
0
ARC
8
0
10
126.85
20
-73.175
40
0.5
50
180
51
270
0
ARC
8
0
10
139.85
20
-73.175
40
0.5
50
270
51
0
0
LINE
8
0
10
145.9
20
-59.675
11
158.9
21
-59.675
0
LINE
8
0
10
145.9
20
-73.675
11
158.9
21
-73.675
0
LINE
8
0
10
145.4
20
-60.175
11
145.4
21
-73.175
0
LINE
8
0
10
159.4
20
-60.175
11
159.4
21
-73.175
0
ARC
8
0
10
145.9
20
-60.175
40
0.5
50
90
51
180
0
ARC
8
0
10
158.9
20
-60.175
40
0.5
50
0
51
90
0
ARC
8
0
10
145.9
20
-73.175
40
0.5
50
180
51
270
0
ARC
8
0
10
158.9
20
-73.175
40
0.5
50
270
51
0
0
LINE
8
0
10
164.95
20
-59.675
11
177.95
21
-59.675
0
LINE
8
0
10
164.95
20
-73.675
11
177.95
21
-73.675
0
LINE
8
0
10
164.45
20
-60.175
11
164.45
21
-73.175
0
LINE
8
0
10
178.45
20
-60.175
11
178.45
21
-73.175
0
ARC
8
0
10
164.95
20
-60.175
40
0.5
50
90
51
180
0
ARC
8
0
10
177.95
20
-60.175
40
0.5
50
0
51
90
0
ARC
8
0
10
164.95
20
-73.175
40
0.5
50
180
51
270
0
ARC
8
0
10
177.95
20
-73.175
40
0.5
50
270
51
0
0
LINE
8
0
10
184
20
-59.675
11
197
21
-59.675
0
LINE
8
0
10
184
20
-73.675
11
197
21
-73.675
0
LINE
8
0
10
183.5
20
-60.175
11
183.5
21
-73.175
0
LINE
8
0
10
197.5
20
-60.175
11
197.5
21
-73.175
0
ARC
8
0
10
184
20
-60.175
40
0.5
50
90
51
180
0
ARC
8
0
10
197
20
-60.175
40
0.5
50
0
51
90
0
ARC
8
0
10
184
20
-73.175
40
0.5
50
180
51
270
0
ARC
8
0
10
197
20
-73.175
40
0.5
50
270
51
0
0
LINE
8
0
10
203.05
20
-59.675
11
216.05
21
-59.675
0
LINE
8
0
10
203.05
20
-73.675
11
216.05
21
-73.675
0
LINE
8
0
10
202.55
20
-60.175
11
202.55
21
-73.175
0
LINE
8
0
10
216.55
20
-60.175
11
216.55
21
-73.175
0
ARC
8
0
10
203.05
20
-60.175
40
0.5
50
90
51
180
0
ARC
8
0
10
216.05
20
-60.175
40
0.5
50
0
51
90
0
ARC
8
0
10
203.05
20
-73.175
40
0.5
50
180
51
270
0
ARC
8
0
10
216.05
20
-73.175
40
0.5
50
270
51
0
0
LINE
8
0
10
222.1
20
-59.675
11
235.1
21
-59.675
0
LINE
8
0
10
222.1
20
-73.675
11
235.1
21
-73.675
0
LINE
8
0
10
221.6
20
-60.175
11
221.6
21
-73.175
0
LINE
8
0
10
235.6
20
-60.175
11
235.6
21
-73.175
0
ARC
8
0
10
222.1
20
-60.175
40
0.5
50
90
51
180
0
ARC
8
0
10
235.1
20
-60.175
40
0.5
50
0
51
90
0
ARC
8
0
10
222.1
20
-73.175
40
0.5
50
180
51
270
0
ARC
8
0
10
235.1
20
-73.175
40
0.5
50
270
51
0
0
LINE
8
0
10
241.15
20
-59.675
11
254.15
21
-59.675
0
LINE
8
0
10
241.15
20
-73.675
11
254.15
21
-73.675
0
LINE
8
0
10
240.65
20
-60.175
11
240.65
21
-73.175
0
LINE
8
0
10
254.65
20
-60.175
11
254.65
21
-73.175
0
ARC
8
0
10
241.15
20
-60.175
40
0.5
50
90
51
180
0
ARC
8
0
10
254.15
20
-60.175
40
0.5
50
0
51
90
0
ARC
8
0
10
241.15
20
-73.175
40
0.5
50
180
51
270
0
ARC
8
0
10
254.15
20
-73.175
40
0.5
50
270
51
0
0
LINE
8
0
10
260.2
20
-59.675
11
273.2
21
-59.675
0
LINE
8
0
10
260.2
20
-73.675
11
273.2
21
-73.675
0
LINE
8
0
10
259.7
20
-60.175
11
259.7
21
-73.175
0
LINE
8
0
10
273.7
20
-60.175
11
273.7
21
-73.175
0
ARC
8
0
10
260.2
20
-60.175
40
0.5
50
90
51
180
0
ARC
8
0
10
273.2
20
-60.175
40
0.5
50
0
51
90
0
ARC
8
0
10
260.2
20
-73.175
40
0.5
50
180
51
270
0
ARC
8
0
10
273.2
20
-73.175
40
0.5
50
270
51
0
0
LINE
8
0
10
279.25
20
-59.675
11
292.25
21
-59.675
0
LINE
8
0
10
279.25
20
-73.675
11
292.25
21
-73.675
0
LINE
8
0
10
278.75
20
-60.175
11
278.75
21
-73.175
0
LINE
8
0
10
292.75
20
-60.175
11
292.75
21
-73.175
0
ARC
8
0
10
279.25
20
-60.175
40
0.5
50
90
51
180
0
ARC
8
0
10
292.25
20
-60.175
40
0.5
50
0
51
90
0
ARC
8
0
10
279.25
20
-73.175
40
0.5
50
180
51
270
0
ARC
8
0
10
292.25
20
-73.175
40
0.5
50
270
51
0
0
LINE
8
0
10
298.3
20
-59.675
11
311.3
21
-59.675
0
LINE
8
0
10
298.3
20
-73.675
11
311.3
21
-73.675
0
LINE
8
0
10
297.8
20
-60.175
11
297.8
21
-73.175
0
LINE
8
0
10
311.8
20
-60.175
11
311.8
21
-73.175
0
ARC
8
0
10
298.3
20
-60.175
40
0.5
50
90
51
180
0
ARC
8
0
10
311.3
20
-60.175
40
0.5
50
0
51
90
0
ARC
8
0
10
298.3
20
-73.175
40
0.5
50
180
51
270
0
ARC
8
0
10
311.3
20
-73.175
40
0.5
50
270
51
0
0
LINE
8
0
10
317.35
20
-59.675
11
330.35
21
-59.675
0
LINE
8
0
10
317.35
20
-73.675
11
330.35
21
-73.675
0
LINE
8
0
10
316.85
20
-60.175
11
316.85
21
-73.175
0
LINE
8
0
10
330.85
20
-60.175
11
330.85
21
-73.175
0
ARC
8
0
10
317.35
20
-60.175
40
0.5
50
90
51
180
0
ARC
8
0
10
330.35
20
-60.175
40
0.5
50
0
51
90
0
ARC
8
0
10
317.35
20
-73.175
40
0.5
50
180
51
270
0
ARC
8
0
10
330.35
20
-73.175
40
0.5
50
270
51
0
0
LINE
8
0
10
336.4
20
-59.675
11
349.4
21
-59.675
0
LINE
8
0
10
336.4
20
-73.675
11
349.4
21
-73.675
0
LINE
8
0
10
335.9
20
-60.175
11
335.9
21
-73.175
0
LINE
8
0
10
349.9
20
-60.175
11
349.9
21
-73.175
0
ARC
8
0
10
336.4
20
-60.175
40
0.5
50
90
51
180
0
ARC
8
0
10
349.4
20
-60.175
40
0.5
50
0
51
90
0
ARC
8
0
10
336.4
20
-73.175
40
0.5
50
180
51
270
0
ARC
8
0
10
349.4
20
-73.175
40
0.5
50
270
51
0
0
LINE
8
0
10
403.075
20
-59.675
11
416.075
21
-59.675
0
LINE
8
0
10
403.075
20
-73.675
11
416.075
21
-73.675
0
LINE
8
0
10
402.575
20
-60.175
11
402.575
21
-73.175
0
LINE
8
0
10
416.575
20
-60.175
11
416.575
21
-73.175
0
ARC
8
0
10
403.075
20
-60.175
40
0.5
50
90
51
180
0
ARC
8
0
10
416.075
20
-60.175
40
0.5
50
0
51
90
0
ARC
8
0
10
403.075
20
-73.175
40
0.5
50
180
51
270
0
ARC
8
0
10
416.075
20
-73.175
40
0.5
50
270
51
0
0
LINE
8
0
10
422.125
20
-59.675
11
435.125
21
-59.675
0
LINE
8
0
10
422.125
20
-73.675
11
435.125
21
-73.675
0
LINE
8
0
10
421.625
20
-60.175
11
421.625
21
-73.175
0
LINE
8
0
10
435.625
20
-60.175
11
435.625
21
-73.175
0
ARC
8
0
10
422.125
20
-60.175
40
0.5
50
90
51
180
0
ARC
8
0
10
435.125
20
-60.175
40
0.5
50
0
51
90
0
ARC
8
0
10
422.125
20
-73.175
40
0.5
50
180
51
270
0
ARC
8
0
10
435.125
20
-73.175
40
0.5
50
270
51
0
0
LINE
8
0
10
441.175
20
-59.675
11
454.175
21
-59.675
0
LINE
8
0
10
441.175
20
-73.675
11
454.175
21
-73.675
0
LINE
8
0
10
440.675
20
-60.175
11
440.675
21
-73.175
0
LINE
8
0
10
454.675
20
-60.175
11
454.675
21
-73.175
0
ARC
8
0
10
441.175
20
-60.175
40
0.5
50
90
51
180
0
ARC
8
0
10
454.175
20
-60.175
40
0.5
50
0
51
90
0
ARC
8
0
10
441.175
20
-73.175
40
0.5
50
180
51
270
0
ARC
8
0
10
454.175
20
-73.175
40
0.5
50
270
51
0
0
LINE
8
0
10
3.025
20
-78.725
11
16.025
21
-78.725
0
LINE
8
0
10
3.025
20
-92.725
11
16.025
21
-92.725
0
LINE
8
0
10
2.525
20
-79.225
11
2.525
21
-92.225
0
LINE
8
0
10
16.525
20
-79.225
11
16.525
21
-92.225
0
ARC
8
0
10
3.025
20
-79.225
40
0.5
50
90
51
180
0
ARC
8
0
10
16.025
20
-79.225
40
0.5
50
0
51
90
0
ARC
8
0
10
3.025
20
-92.225
40
0.5
50
180
51
270
0
ARC
8
0
10
16.025
20
-92.225
40
0.5
50
270
51
0
0
LINE
8
0
10
88.75
20
-78.725
11
101.75
21
-78.725
0
LINE
8
0
10
88.75
20
-92.725
11
101.75
21
-92.725
0
LINE
8
0
10
88.25
20
-79.225
11
88.25
21
-92.225
0
LINE
8
0
10
102.25
20
-79.225
11
102.25
21
-92.225
0
ARC
8
0
10
88.75
20
-79.225
40
0.5
50
90
51
180
0
ARC
8
0
10
101.75
20
-79.225
40
0.5
50
0
51
90
0
ARC
8
0
10
88.75
20
-92.225
40
0.5
50
180
51
270
0
ARC
8
0
10
101.75
20
-92.225
40
0.5
50
270
51
0
0
LINE
8
0
10
80.312
20
-79.725
11
86.312
21
-79.725
0
LINE
8
0
10
80.312
20
-94.725
11
86.312
21
-94.725
0
LINE
8
0
10
79.812
20
-80.225
11
79.812
21
-94.225
0
LINE
8
0
10
86.812
20
-80.225
11
86.812
21
-94.225
0
ARC
8
0
10
80.312
20
-80.225
40
0.5
50
90
51
180
0
ARC
8
0
10
86.312
20
-80.225
40
0.5
50
0
51
90
0
ARC
8
0
10
80.312
20
-94.225
40
0.5
50
180
51
270
0
ARC
8
0
10
86.312
20
-94.225
40
0.5
50
270
51
0
0
LINE
8
0
10
104.188
20
-79.725
11
110.188
21
-79.725
0
LINE
8
0
10
104.188
20
-94.725
11
110.188
21
-94.725
0
LINE
8
0
10
103.688
20
-80.225
11
103.688
21
-94.225
0
LINE
8
0
10
110.688
20
-80.225
11
110.688
21
-94.225
0
ARC
8
0
10
104.188
20
-80.225
40
0.5
50
90
51
180
0
ARC
8
0
10
110.188
20
-80.225
40
0.5
50
0
51
90
0
ARC
8
0
10
104.188
20
-94.225
40
0.5
50
180
51
270
0
ARC
8
0
10
110.188
20
-94.225
40
0.5
50
270
51
0
0
LINE
8
0
10
122.0875
20
-78.725
11
135.0875
21
-78.725
0
LINE
8
0
10
122.0875
20
-92.725
11
135.0875
21
-92.725
0
LINE
8
0
10
121.5875
20
-79.225
11
121.5875
21
-92.225
0
LINE
8
0
10
135.5875
20
-79.225
11
135.5875
21
-92.225
0
ARC
8
0
10
122.0875
20
-79.225
40
0.5
50
90
51
180
0
ARC
8
0
10
135.0875
20
-79.225
40
0.5
50
0
51
90
0
ARC
8
0
10
122.0875
20
-92.225
40
0.5
50
180
51
270
0
ARC
8
0
10
135.0875
20
-92.225
40
0.5
50
270
51
0
0
LINE
8
0
10
141.1375
20
-78.725
11
154.1375
21
-78.725
0
LINE
8
0
10
141.1375
20
-92.725
11
154.1375
21
-92.725
0
LINE
8
0
10
140.6375
20
-79.225
11
140.6375
21
-92.225
0
LINE
8
0
10
154.6375
20
-79.225
11
154.6375
21
-92.225
0
ARC
8
0
10
141.1375
20
-79.225
40
0.5
50
90
51
180
0
ARC
8
0
10
154.1375
20
-79.225
40
0.5
50
0
51
90
0
ARC
8
0
10
141.1375
20
-92.225
40
0.5
50
180
51
270
0
ARC
8
0
10
154.1375
20
-92.225
40
0.5
50
270
51
0
0
LINE
8
0
10
160.1875
20
-78.725
11
173.1875
21
-78.725
0
LINE
8
0
10
160.1875
20
-92.725
11
173.1875
21
-92.725
0
LINE
8
0
10
159.6875
20
-79.225
11
159.6875
21
-92.225
0
LINE
8
0
10
173.6875
20
-79.225
11
173.6875
21
-92.225
0
ARC
8
0
10
160.1875
20
-79.225
40
0.5
50
90
51
180
0
ARC
8
0
10
173.1875
20
-79.225
40
0.5
50
0
51
90
0
ARC
8
0
10
160.1875
20
-92.225
40
0.5
50
180
51
270
0
ARC
8
0
10
173.1875
20
-92.225
40
0.5
50
270
51
0
0
LINE
8
0
10
179.2375
20
-78.725
11
192.2375
21
-78.725
0
LINE
8
0
10
179.2375
20
-92.725
11
192.2375
21
-92.725
0
LINE
8
0
10
178.7375
20
-79.225
11
178.7375
21
-92.225
0
LINE
8
0
10
192.7375
20
-79.225
11
192.7375
21
-92.225
0
ARC
8
0
10
179.2375
20
-79.225
40
0.5
50
90
51
180
0
ARC
8
0
10
192.2375
20
-79.225
40
0.5
50
0
51
90
0
ARC
8
0
10
179.2375
20
-92.225
40
0.5
50
180
51
270
0
ARC
8
0
10
192.2375
20
-92.225
40
0.5
50
270
51
0
0
LINE
8
0
10
198.2875
20
-78.725
11
211.2875
21
-78.725
0
LINE
8
0
10
198.2875
20
-92.725
11
211.2875
21
-92.725
0
LINE
8
0
10
197.7875
20
-79.225
11
197.7875
21
-92.225
0
LINE
8
0
10
211.7875
20
-79.225
11
211.7875
21
-92.225
0
ARC
8
0
10
198.2875
20
-79.225
40
0.5
50
90
51
180
0
ARC
8
0
10
211.2875
20
-79.225
40
0.5
50
0
51
90
0
ARC
8
0
10
198.2875
20
-92.225
40
0.5
50
180
51
270
0
ARC
8
0
10
211.2875
20
-92.225
40
0.5
50
270
51
0
0
LINE
8
0
10
217.3375
20
-78.725
11
230.3375
21
-78.725
0
LINE
8
0
10
217.3375
20
-92.725
11
230.3375
21
-92.725
0
LINE
8
0
10
216.8375
20
-79.225
11
216.8375
21
-92.225
0
LINE
8
0
10
230.8375
20
-79.225
11
230.8375
21
-92.225
0
ARC
8
0
10
217.3375
20
-79.225
40
0.5
50
90
51
180
0
ARC
8
0
10
230.3375
20
-79.225
40
0.5
50
0
51
90
0
ARC
8
0
10
217.3375
20
-92.225
40
0.5
50
180
51
270
0
ARC
8
0
10
230.3375
20
-92.225
40
0.5
50
270
51
0
0
LINE
8
0
10
236.3875
20
-78.725
11
249.3875
21
-78.725
0
LINE
8
0
10
236.3875
20
-92.725
11
249.3875
21
-92.725
0
LINE
8
0
10
235.8875
20
-79.225
11
235.8875
21
-92.225
0
LINE
8
0
10
249.8875
20
-79.225
11
249.8875
21
-92.225
0
ARC
8
0
10
236.3875
20
-79.225
40
0.5
50
90
51
180
0
ARC
8
0
10
249.3875
20
-79.225
40
0.5
50
0
51
90
0
ARC
8
0
10
236.3875
20
-92.225
40
0.5
50
180
51
270
0
ARC
8
0
10
249.3875
20
-92.225
40
0.5
50
270
51
0
0
LINE
8
0
10
255.4375
20
-78.725
11
268.4375
21
-78.725
0
LINE
8
0
10
255.4375
20
-92.725
11
268.4375
21
-92.725
0
LINE
8
0
10
254.9375
20
-79.225
11
254.9375
21
-92.225
0
LINE
8
0
10
268.9375
20
-79.225
11
268.9375
21
-92.225
0
ARC
8
0
10
255.4375
20
-79.225
40
0.5
50
90
51
180
0
ARC
8
0
10
268.4375
20
-79.225
40
0.5
50
0
51
90
0
ARC
8
0
10
255.4375
20
-92.225
40
0.5
50
180
51
270
0
ARC
8
0
10
268.4375
20
-92.225
40
0.5
50
270
51
0
0
LINE
8
0
10
274.4875
20
-78.725
11
287.4875
21
-78.725
0
LINE
8
0
10
274.4875
20
-92.725
11
287.4875
21
-92.725
0
LINE
8
0
10
273.9875
20
-79.225
11
273.9875
21
-92.225
0
LINE
8
0
10
287.9875
20
-79.225
11
287.9875
21
-92.225
0
ARC
8
0
10
274.4875
20
-79.225
40
0.5
50
90
51
180
0
ARC
8
0
10
287.4875
20
-79.225
40
0.5
50
0
51
90
0
ARC
8
0
10
274.4875
20
-92.225
40
0.5
50
180
51
270
0
ARC
8
0
10
287.4875
20
-92.225
40
0.5
50
270
51
0
0
LINE
8
0
10
293.5375
20
-78.725
11
306.5375
21
-78.725
0
LINE
8
0
10
293.5375
20
-92.725
11
306.5375
21
-92.725
0
LINE
8
0
10
293.0375
20
-79.225
11
293.0375
21
-92.225
0
LINE
8
0
10
307.0375
20
-79.225
11
307.0375
21
-92.225
0
ARC
8
0
10
293.5375
20
-79.225
40
0.5
50
90
51
180
0
ARC
8
0
10
306.5375
20
-79.225
40
0.5
50
0
51
90
0
ARC
8
0
10
293.5375
20
-92.225
40
0.5
50
180
51
270
0
ARC
8
0
10
306.5375
20
-92.225
40
0.5
50
270
51
0
0
LINE
8
0
10
317.35
20
-78.725
11
330.35
21
-78.725
0
LINE
8
0
10
317.35
20
-92.725
11
330.35
21
-92.725
0
LINE
8
0
10
316.85
20
-79.225
11
316.85
21
-92.225
0
LINE
8
0
10
330.85
20
-79.225
11
330.85
21
-92.225
0
ARC
8
0
10
317.35
20
-79.225
40
0.5
50
90
51
180
0
ARC
8
0
10
330.35
20
-79.225
40
0.5
50
0
51
90
0
ARC
8
0
10
317.35
20
-92.225
40
0.5
50
180
51
270
0
ARC
8
0
10
330.35
20
-92.225
40
0.5
50
270
51
0
0
LINE
8
0
10
341.1625
20
-78.725
11
354.1625
21
-78.725
0
LINE
8
0
10
341.1625
20
-92.725
11
354.1625
21
-92.725
0
LINE
8
0
10
340.6625
20
-79.225
11
340.6625
21
-92.225
0
LINE
8
0
10
354.6625
20
-79.225
11
354.6625
21
-92.225
0
ARC
8
0
10
341.1625
20
-79.225
40
0.5
50
90
51
180
0
ARC
8
0
10
354.1625
20
-79.225
40
0.5
50
0
51
90
0
ARC
8
0
10
341.1625
20
-92.225
40
0.5
50
180
51
270
0
ARC
8
0
10
354.1625
20
-92.225
40
0.5
50
270
51
0
0
LINE
8
0
10
403.075
20
-78.725
11
416.075
21
-78.725
0
LINE
8
0
10
403.075
20
-92.725
11
416.075
21
-92.725
0
LINE
8
0
10
402.575
20
-79.225
11
402.575
21
-92.225
0
LINE
8
0
10
416.575
20
-79.225
11
416.575
21
-92.225
0
ARC
8
0
10
403.075
20
-79.225
40
0.5
50
90
51
180
0
ARC
8
0
10
416.075
20
-79.225
40
0.5
50
0
51
90
0
ARC
8
0
10
403.075
20
-92.225
40
0.5
50
180
51
270
0
ARC
8
0
10
416.075
20
-92.225
40
0.5
50
270
51
0
0
LINE
8
0
10
422.125
20
-78.725
11
435.125
21
-78.725
0
LINE
8
0
10
422.125
20
-92.725
11
435.125
21
-92.725
0
LINE
8
0
10
421.625
20
-79.225
11
421.625
21
-92.225
0
LINE
8
0
10
435.625
20
-79.225
11
435.625
21
-92.225
0
ARC
8
0
10
422.125
20
-79.225
40
0.5
50
90
51
180
0
ARC
8
0
10
435.125
20
-79.225
40
0.5
50
0
51
90
0
ARC
8
0
10
422.125
20
-92.225
40
0.5
50
180
51
270
0
ARC
8
0
10
435.125
20
-92.225
40
0.5
50
270
51
0
0
LINE
8
0
10
441.175
20
-78.725
11
454.175
21
-78.725
0
LINE
8
0
10
441.175
20
-92.725
11
454.175
21
-92.725
0
LINE
8
0
10
440.675
20
-79.225
11
440.675
21
-92.225
0
LINE
8
0
10
454.675
20
-79.225
11
454.675
21
-92.225
0
ARC
8
0
10
441.175
20
-79.225
40
0.5
50
90
51
180
0
ARC
8
0
10
454.175
20
-79.225
40
0.5
50
0
51
90
0
ARC
8
0
10
441.175
20
-92.225
40
0.5
50
180
51
270
0
ARC
8
0
10
454.175
20
-92.225
40
0.5
50
270
51
0
0
LINE
8
0
10
3.025
20
-97.775
11
16.025
21
-97.775
0
LINE
8
0
10
3.025
20
-111.775
11
16.025
21
-111.775
0
LINE
8
0
10
2.525
20
-98.275
11
2.525
21
-111.275
0
LINE
8
0
10
16.525
20
-98.275
11
16.525
21
-111.275
0
ARC
8
0
10
3.025
20
-98.275
40
0.5
50
90
51
180
0
ARC
8
0
10
16.025
20
-98.275
40
0.5
50
0
51
90
0
ARC
8
0
10
3.025
20
-111.275
40
0.5
50
180
51
270
0
ARC
8
0
10
16.025
20
-111.275
40
0.5
50
270
51
0
0
LINE
8
0
10
103.0375
20
-97.775
11
116.0375
21
-97.775
0
LINE
8
0
10
103.0375
20
-111.775
11
116.0375
21
-111.775
0
LINE
8
0
10
102.5375
20
-98.275
11
102.5375
21
-111.275
0
LINE
8
0
10
116.5375
20
-98.275
11
116.5375
21
-111.275
0
ARC
8
0
10
103.0375
20
-98.275
40
0.5
50
90
51
180
0
ARC
8
0
10
116.0375
20
-98.275
40
0.5
50
0
51
90
0
ARC
8
0
10
103.0375
20
-111.275
40
0.5
50
180
51
270
0
ARC
8
0
10
116.0375
20
-111.275
40
0.5
50
270
51
0
0
LINE
8
0
10
122.0875
20
-97.775
11
135.0875
21
-97.775
0
LINE
8
0
10
122.0875
20
-111.775
11
135.0875
21
-111.775
0
LINE
8
0
10
121.5875
20
-98.275
11
121.5875
21
-111.275
0
LINE
8
0
10
135.5875
20
-98.275
11
135.5875
21
-111.275
0
ARC
8
0
10
122.0875
20
-98.275
40
0.5
50
90
51
180
0
ARC
8
0
10
135.0875
20
-98.275
40
0.5
50
0
51
90
0
ARC
8
0
10
122.0875
20
-111.275
40
0.5
50
180
51
270
0
ARC
8
0
10
135.0875
20
-111.275
40
0.5
50
270
51
0
0
LINE
8
0
10
207.8125
20
-97.775
11
220.8125
21
-97.775
0
LINE
8
0
10
207.8125
20
-111.775
11
220.8125
21
-111.775
0
LINE
8
0
10
207.3125
20
-98.275
11
207.3125
21
-111.275
0
LINE
8
0
10
221.3125
20
-98.275
11
221.3125
21
-111.275
0
ARC
8
0
10
207.8125
20
-98.275
40
0.5
50
90
51
180
0
ARC
8
0
10
220.8125
20
-98.275
40
0.5
50
0
51
90
0
ARC
8
0
10
207.8125
20
-111.275
40
0.5
50
180
51
270
0
ARC
8
0
10
220.8125
20
-111.275
40
0.5
50
270
51
0
0
LINE
8
0
10
144.6375
20
-98.775
11
150.6375
21
-98.775
0
LINE
8
0
10
144.6375
20
-113.775
11
150.6375
21
-113.775
0
LINE
8
0
10
144.1375
20
-99.275
11
144.1375
21
-113.275
0
LINE
8
0
10
151.1375
20
-99.275
11
151.1375
21
-113.275
0
ARC
8
0
10
144.6375
20
-99.275
40
0.5
50
90
51
180
0
ARC
8
0
10
150.6375
20
-99.275
40
0.5
50
0
51
90
0
ARC
8
0
10
144.6375
20
-113.275
40
0.5
50
180
51
270
0
ARC
8
0
10
150.6375
20
-113.275
40
0.5
50
270
51
0
0
LINE
8
0
10
277.9875
20
-98.775
11
283.9875
21
-98.775
0
LINE
8
0
10
277.9875
20
-113.775
11
283.9875
21
-113.775
0
LINE
8
0
10
277.4875
20
-99.275
11
277.4875
21
-113.275
0
LINE
8
0
10
284.4875
20
-99.275
11
284.4875
21
-113.275
0
ARC
8
0
10
277.9875
20
-99.275
40
0.5
50
90
51
180
0
ARC
8
0
10
283.9875
20
-99.275
40
0.5
50
0
51
90
0
ARC
8
0
10
277.9875
20
-113.275
40
0.5
50
180
51
270
0
ARC
8
0
10
283.9875
20
-113.275
40
0.5
50
270
51
0
0
LINE
8
0
10
293.5375
20
-97.775
11
306.5375
21
-97.775
0
LINE
8
0
10
293.5375
20
-111.775
11
306.5375
21
-111.775
0
LINE
8
0
10
293.0375
20
-98.275
11
293.0375
21
-111.275
0
LINE
8
0
10
307.0375
20
-98.275
11
307.0375
21
-111.275
0
ARC
8
0
10
293.5375
20
-98.275
40
0.5
50
90
51
180
0
ARC
8
0
10
306.5375
20
-98.275
40
0.5
50
0
51
90
0
ARC
8
0
10
293.5375
20
-111.275
40
0.5
50
180
51
270
0
ARC
8
0
10
306.5375
20
-111.275
40
0.5
50
270
51
0
0
LINE
8
0
10
312.5875
20
-97.775
11
325.5875
21
-97.775
0
LINE
8
0
10
312.5875
20
-111.775
11
325.5875
21
-111.775
0
LINE
8
0
10
312.0875
20
-98.275
11
312.0875
21
-111.275
0
LINE
8
0
10
326.0875
20
-98.275
11
326.0875
21
-111.275
0
ARC
8
0
10
312.5875
20
-98.275
40
0.5
50
90
51
180
0
ARC
8
0
10
325.5875
20
-98.275
40
0.5
50
0
51
90
0
ARC
8
0
10
312.5875
20
-111.275
40
0.5
50
180
51
270
0
ARC
8
0
10
325.5875
20
-111.275
40
0.5
50
270
51
0
0
LINE
8
0
10
403.075
20
-97.775
11
416.075
21
-97.775
0
LINE
8
0
10
403.075
20
-111.775
11
416.075
21
-111.775
0
LINE
8
0
10
402.575
20
-98.275
11
402.575
21
-111.275
0
LINE
8
0
10
416.575
20
-98.275
11
416.575
21
-111.275
0
ARC
8
0
10
403.075
20
-98.275
40
0.5
50
90
51
180
0
ARC
8
0
10
416.075
20
-98.275
40
0.5
50
0
51
90
0
ARC
8
0
10
403.075
20
-111.275
40
0.5
50
180
51
270
0
ARC
8
0
10
416.075
20
-111.275
40
0.5
50
270
51
0
0
LINE
8
0
10
422.125
20
-97.775
11
435.125
21
-97.775
0
LINE
8
0
10
422.125
20
-111.775
11
435.125
21
-111.775
0
LINE
8
0
10
421.625
20
-98.275
11
421.625
21
-111.275
0
LINE
8
0
10
435.625
20
-98.275
11
435.625
21
-111.275
0
ARC
8
0
10
422.125
20
-98.275
40
0.5
50
90
51
180
0
ARC
8
0
10
435.125
20
-98.275
40
0.5
50
0
51
90
0
ARC
8
0
10
422.125
20
-111.275
40
0.5
50
180
51
270
0
ARC
8
0
10
435.125
20
-111.275
40
0.5
50
270
51
0
0
LINE
8
0
10
441.175
20
-97.775
11
454.175
21
-97.775
0
LINE
8
0
10
441.175
20
-111.775
11
454.175
21
-111.775
0
LINE
8
0
10
440.675
20
-98.275
11
440.675
21
-111.275
0
LINE
8
0
10
454.675
20
-98.275
11
454.675
21
-111.275
0
ARC
8
0
10
441.175
20
-98.275
40
0.5
50
90
51
180
0
ARC
8
0
10
454.175
20
-98.275
40
0.5
50
0
51
90
0
ARC
8
0
10
441.175
20
-111.275
40
0.5
50
180
51
270
0
ARC
8
0
10
454.175
20
-111.275
40
0.5
50
270
51
0
0
LINE
8
0
10
0
20
-114.3
11
457.2
21
-114.3
0
LINE
8
0
10
0
20
0
11
457.2
21
0
0
LINE
8
0
10
0
20
-114.3
11
0
21
0
0
LINE
8
0
10
457.2
20
-114.3
11
457.2
21
0
0
ENDSEC
0
EOF